<svg width="90" height="90" viewBox="0 0 90 90" fill="none" xmlns="http://www.w3.org/2000/svg">
<path d="M0 45.1328C0 25.5357 0 15.7371 5.38176 9.12096C6.41776 7.84734 7.58171 6.68338 8.85533 5.64738C15.4714 0.265625 25.27 0.265625 44.8672 0.265625C64.4644 0.265625 74.263 0.265625 80.8791 5.64738C82.1527 6.68338 83.3167 7.84734 84.3527 9.12096C89.7344 15.7371 89.7344 25.5357 89.7344 45.1328C89.7344 64.73 89.7344 74.5286 84.3527 81.1447C83.3167 82.4183 82.1527 83.5823 80.8791 84.6183C74.263 90 64.4644 90 44.8672 90C25.27 90 15.4714 90 8.85533 84.6183C7.58171 83.5823 6.41776 82.4183 5.38176 81.1447C0 74.5286 0 64.73 0 45.1328Z" fill="#2B4D24"/>
<path d="M41.8982 60.1151C35.0776 60.1151 29.5303 54.5722 29.5303 47.7606C29.5303 40.949 35.0792 35.4045 41.8982 35.4045C48.7173 35.4045 54.2662 40.9475 54.2662 47.7606C54.2662 54.5738 48.7173 60.1151 41.8982 60.1151ZM41.8982 37.1051C36.0167 37.1051 31.2327 41.8839 31.2327 47.759C31.2327 53.6341 36.0167 58.413 41.8982 58.413C47.7798 58.413 52.5638 53.6341 52.5638 47.759C52.5638 41.8839 47.7798 37.1051 41.8982 37.1051Z" fill="#FEBE15"/>
<path d="M41.8988 70.6378C29.2696 70.6378 18.9951 60.3745 18.9951 47.759C18.9951 35.1435 29.2696 24.8802 41.8988 24.8802C44.2916 24.8802 46.6512 25.2472 48.9094 25.9717C49.3576 26.1157 49.6046 26.595 49.4605 27.0411C49.3164 27.4888 48.8382 27.7355 48.39 27.5916C46.2997 26.9209 44.1175 26.5808 41.9004 26.5808C30.2086 26.5824 20.6991 36.0831 20.6991 47.759C20.6991 59.4349 30.2102 68.9357 41.8988 68.9357C53.5874 68.9357 63.0986 59.4349 63.0986 47.759C63.0986 45.4352 62.7248 43.1526 61.9869 40.9727C61.8364 40.5266 62.0755 40.0442 62.5205 39.8939C62.9671 39.7404 63.4501 39.9825 63.6006 40.427C64.3971 42.7824 64.8025 45.2486 64.8025 47.759C64.8025 60.3745 54.5281 70.6378 41.8988 70.6378Z" fill="#FEBE15"/>
<path d="M60.4599 37.2886C60.4124 37.2886 60.3633 37.2838 60.3142 37.2759L54.2221 36.2192C53.8673 36.1575 53.5902 35.8807 53.5284 35.5264L52.4706 29.4409C52.4231 29.1688 52.5118 28.8904 52.7081 28.6942L61.9026 19.5098C62.1401 19.2725 62.4948 19.1966 62.81 19.3168C63.1235 19.437 63.3373 19.7297 63.3563 20.065L63.6794 26.0809L69.7018 26.4052C70.0375 26.4226 70.3305 26.6378 70.4509 26.951C70.5712 27.2642 70.4952 27.6201 70.2577 27.8574L61.0632 37.0418C60.9017 37.2032 60.6848 37.2917 60.4615 37.2917L60.4599 37.2886ZM55.1041 34.6452L60.1701 35.5248L67.7017 28.0013L62.8226 27.7387C62.3887 27.715 62.0419 27.3686 62.0182 26.9352L61.7553 22.0614L54.2236 29.5848L55.1025 34.6452H55.1041Z" fill="#FEBE15"/>
<path d="M40.8317 49.7522C40.6131 49.7522 40.3962 49.6683 40.2299 49.5022C39.8973 49.17 39.8973 48.6322 40.2299 48.3L53.765 34.7797C54.0975 34.4475 54.636 34.4475 54.9685 34.7797C55.3011 35.1119 55.3011 35.6497 54.9685 35.9819L41.4334 49.5022C41.2671 49.6683 41.0486 49.7522 40.8317 49.7522Z" fill="#FEBE15"/>
<path d="M41.8981 51.2012C43.8012 51.2012 45.344 49.6601 45.344 47.7591C45.344 45.858 43.8012 44.3169 41.8981 44.3169C39.9949 44.3169 38.4521 45.858 38.4521 47.7591C38.4521 49.6601 39.9949 51.2012 41.8981 51.2012Z" fill="#FEBE15"/>
<path d="M41.8986 51.8403C41.5945 51.8403 41.2857 51.8055 40.9769 51.7344C39.9143 51.4892 39.0101 50.8438 38.4321 49.9184C37.8541 48.9945 37.6719 47.8999 37.919 46.8384C38.1644 45.777 38.8106 44.8737 39.7354 44.2979C40.6618 43.7205 41.7561 43.5386 42.8187 43.7838C45.012 44.2916 46.3849 46.4873 45.8766 48.6782C45.4411 50.5622 43.7562 51.8388 41.8986 51.8388V51.8403ZM41.8923 44.9544C41.3728 44.9544 40.8629 45.0999 40.4116 45.3799C39.775 45.777 39.3316 46.3971 39.1621 47.1263C38.9927 47.8556 39.1178 48.6086 39.5153 49.2429C39.9127 49.8788 40.5335 50.3217 41.2636 50.491C41.992 50.6587 42.7458 50.5337 43.3824 50.1382C44.019 49.7412 44.4624 49.1211 44.6319 48.3918C44.9803 46.8859 44.038 45.3768 42.5304 45.0272C42.3182 44.9781 42.1045 44.9544 41.8923 44.9544Z" fill="#FEBE15"/>
</svg>
