<svg width="90" height="90" viewBox="0 0 90 90" fill="none" xmlns="http://www.w3.org/2000/svg">
<path d="M0 45.1328C0 25.5357 0 15.7371 5.38176 9.12096C6.41776 7.84734 7.58171 6.68338 8.85533 5.64738C15.4714 0.265625 25.27 0.265625 44.8672 0.265625C64.4644 0.265625 74.263 0.265625 80.8791 5.64738C82.1527 6.68338 83.3167 7.84734 84.3527 9.12096C89.7344 15.7371 89.7344 25.5357 89.7344 45.1328C89.7344 64.73 89.7344 74.5286 84.3527 81.1447C83.3167 82.4183 82.1527 83.5823 80.8791 84.6183C74.263 90 64.4644 90 44.8672 90C25.27 90 15.4714 90 8.85533 84.6183C7.58171 83.5823 6.41776 82.4183 5.38176 81.1447C0 74.5286 0 64.73 0 45.1328Z" fill="#2B4D24"/>
<path d="M44.6665 68.587C31.5955 68.587 20.96 57.9647 20.96 44.9062C20.96 31.8478 31.5939 21.2255 44.6665 21.2255C57.7392 21.2255 68.3731 31.8478 68.3731 44.9062C68.3731 57.9647 57.7392 68.587 44.6665 68.587ZM44.6665 22.9877C32.5678 22.9877 22.7241 32.8207 22.7241 44.9062C22.7241 56.9918 32.5678 66.8248 44.6665 66.8248C56.7653 66.8248 66.609 56.9918 66.609 44.9062C66.609 32.8207 56.7653 22.9877 44.6665 22.9877Z" fill="#FEBE15"/>
<path d="M31.5246 64.4299C31.2902 64.4299 31.0558 64.3365 30.8816 64.1515C30.5491 63.7971 30.5665 63.2403 30.9228 62.9065L36.4955 57.6879C36.6586 57.5345 36.874 57.449 37.0989 57.449H47.9624L61.0572 46.3616C59.5085 45.5501 57.5796 45.7336 56.1987 46.8979L51.7599 50.6469C51.5999 50.7814 51.3988 50.8557 51.1914 50.8557H33.8588L25.9138 57.699C25.5448 58.0153 24.989 57.9758 24.6707 57.6072C24.3524 57.2386 24.3952 56.6834 24.7626 56.3654L32.9562 49.3087C33.1161 49.171 33.3204 49.0951 33.5326 49.0951H50.8715L55.0649 45.5533C57.3231 43.6471 60.6249 43.6171 62.9164 45.4853C63.1555 45.6798 63.2964 45.9693 63.2996 46.2794C63.3028 46.5894 63.1697 46.8836 62.9338 47.0845L48.8603 59.0009C48.7004 59.1353 48.4992 59.2097 48.2902 59.2097H37.452L32.1342 64.191C31.9648 64.3508 31.7479 64.4299 31.5309 64.4299H31.5246Z" fill="#FEBE15"/>
<path d="M40.2493 55.0144C39.7679 55.0144 39.3752 54.6285 39.3673 54.146C39.3609 53.6604 39.7505 53.2601 40.2367 53.2538L46.0295 53.1763L50.6172 49.3023C50.9877 48.9875 51.5436 49.0349 51.8587 49.4067C52.1723 49.7784 52.1264 50.3337 51.7542 50.6469L46.9242 54.725C46.769 54.8563 46.5711 54.9306 46.3668 54.9338L40.2572 55.0144H40.2445H40.2493Z" fill="#FEBE15"/>
<path d="M39.8297 39.6512C39.4528 39.6512 39.1171 39.4108 38.9951 39.0548L38.1083 36.4526L35.5033 35.5668C35.1454 35.445 34.9062 35.1096 34.9062 34.7331C34.9062 34.3566 35.147 34.0213 35.5033 33.8995L38.1083 33.0136L38.9951 30.4114C39.1171 30.0539 39.4528 29.8151 39.8297 29.8151C40.2066 29.8151 40.5423 30.0555 40.6643 30.4114L41.5511 33.0136L44.1561 33.8995C44.514 34.0213 44.7531 34.3566 44.7531 34.7331C44.7531 35.1096 44.5124 35.445 44.1561 35.5668L41.5511 36.4526L40.6643 39.0548C40.5423 39.4123 40.2066 39.6512 39.8297 39.6512ZM38.5232 34.7331L39.087 34.9245C39.3467 35.0131 39.5494 35.2156 39.6365 35.475L39.8281 36.0382L40.0213 35.475C40.1084 35.2156 40.3127 35.0131 40.5708 34.9245L41.1346 34.7331L40.5708 34.5417C40.3111 34.4531 40.1084 34.2507 40.0213 33.9912L39.8281 33.4281L39.6365 33.9912C39.5494 34.2491 39.3451 34.4531 39.087 34.5417L38.5232 34.7331Z" fill="#FEBE15"/>
<path d="M48.7096 46.409C48.3327 46.409 47.997 46.1686 47.875 45.8127L46.9882 43.2105L44.3832 42.3246C44.0253 42.2028 43.7861 41.8674 43.7861 41.491C43.7861 41.1145 44.0268 40.7791 44.3832 40.6573L46.9882 39.7714L47.875 37.1692C47.997 36.8117 48.3327 36.5729 48.7096 36.5729C49.0865 36.5729 49.4222 36.8133 49.5441 37.1692L50.4309 39.7714L53.036 40.6573C53.3939 40.7791 53.633 41.1145 53.633 41.491C53.633 41.8674 53.3923 42.2028 53.036 42.3246L50.4309 43.2105L49.5441 45.8127C49.4222 46.1702 49.0865 46.409 48.7096 46.409ZM47.4031 41.491L47.9668 41.6824C48.2265 41.7709 48.4293 41.9734 48.5164 42.2329L48.7096 42.796L48.9012 42.2329C48.9883 41.975 49.1926 41.7709 49.4507 41.6824L50.0145 41.491L49.4507 41.2995C49.191 41.211 48.9883 41.0085 48.9012 40.749L48.7096 40.1859L48.5164 40.749C48.4293 41.0085 48.225 41.211 47.9668 41.2995L47.4031 41.491Z" fill="#FEBE15"/>
<path d="M48.7074 37.4524L49.7351 40.4643L52.7503 41.4909L49.7351 42.516L48.7074 45.5279L47.6812 42.516L44.666 41.4909L47.6812 40.4643L48.7074 37.4524Z" fill="#FEBE15"/>
<path d="M39.8304 30.6962L40.8566 33.7081L43.8734 34.7331L40.8566 35.7582L39.8304 38.7717L38.8043 35.7582L35.7891 34.7331L38.8043 33.7081L39.8304 30.6962Z" fill="#FEBE15"/>
</svg>
