<svg width="90" height="90" viewBox="0 0 90 90" fill="none" xmlns="http://www.w3.org/2000/svg">
<path d="M0 45.1328C0 25.5357 0 15.7371 5.38176 9.12096C6.41776 7.84734 7.58171 6.68338 8.85533 5.64738C15.4714 0.265625 25.27 0.265625 44.8672 0.265625C64.4644 0.265625 74.263 0.265625 80.8791 5.64738C82.1527 6.68338 83.3167 7.84734 84.3527 9.12096C89.7344 15.7371 89.7344 25.5357 89.7344 45.1328C89.7344 64.73 89.7344 74.5286 84.3527 81.1447C83.3167 82.4183 82.1527 83.5823 80.8791 84.6183C74.263 90 64.4644 90 44.8672 90C25.27 90 15.4714 90 8.85533 84.6183C7.58171 83.5823 6.41776 82.4183 5.38176 81.1447C0 74.5286 0 64.73 0 45.1328Z" fill="#2B4D24"/>
<path d="M48.7328 65.2362H41.567C39.312 65.2362 37.4227 63.6164 37.0791 61.3843C36.6198 58.4136 35.4986 56.8079 34.3093 55.1074C32.8192 52.9766 31.2783 50.7715 31.2783 46.0511C31.2783 38.4106 37.5003 32.1954 45.1491 32.1954C52.798 32.1954 59.0199 38.4106 59.0199 46.0511C59.0199 50.7715 57.4791 52.975 55.9889 55.1074C54.8012 56.8079 53.68 58.412 53.2208 61.3843C52.8771 63.6164 50.9879 65.2362 48.7328 65.2362ZM45.1491 33.8975C38.4394 33.8975 32.9807 39.3503 32.9807 46.0511C32.9807 50.2368 34.3046 52.1287 35.7045 54.133C36.9524 55.9173 38.2414 57.7618 38.7609 61.1233C38.9762 62.5201 40.156 63.5341 41.5654 63.5341H48.7313C50.1407 63.5341 51.3204 62.5201 51.5358 61.1233C52.0552 57.7618 53.3443 55.9158 54.5922 54.133C55.9921 52.1287 57.316 50.2368 57.316 46.0511C57.316 39.3503 51.8573 33.8975 45.1491 33.8975Z" fill="#FEBE15"/>
<path d="M45.0463 28.1094C44.576 28.1094 44.1943 27.7282 44.1943 27.2584V19.4565C44.1943 18.9867 44.576 18.6055 45.0463 18.6055C45.5166 18.6055 45.8983 18.9867 45.8983 19.4565V27.2599C45.8983 27.7298 45.5166 28.111 45.0463 28.111V28.1094Z" fill="#FEBE15"/>
<path d="M58.7809 33.7077C58.5623 33.7077 58.3454 33.6238 58.1791 33.4578C57.8465 33.1256 57.8465 32.5861 58.1791 32.2555L63.7027 26.7379C64.0353 26.4057 64.5737 26.4057 64.9063 26.7379C65.2388 27.0701 65.2388 27.6095 64.9063 27.9401L59.3826 33.4578C59.2164 33.6238 58.9978 33.7077 58.7809 33.7077Z" fill="#FEBE15"/>
<path d="M25.8483 66.6045C25.6297 66.6045 25.4128 66.5207 25.2465 66.3546C24.9139 66.0224 24.9139 65.4846 25.2465 65.1524L30.7701 59.6348C31.1027 59.3026 31.6411 59.3026 31.9736 59.6348C32.3062 59.967 32.3062 60.5048 31.9736 60.837L26.45 66.3546C26.2837 66.5207 26.0652 66.6045 25.8483 66.6045Z" fill="#FEBE15"/>
<path d="M72.2713 47.3973H64.4594C63.9891 47.3973 63.6074 47.0161 63.6074 46.5462C63.6074 46.0764 63.9891 45.6952 64.4594 45.6952H72.2713C72.7417 45.6952 73.1233 46.0764 73.1233 46.5462C73.1233 47.0161 72.7417 47.3973 72.2713 47.3973Z" fill="#FEBE15"/>
<path d="M25.6952 47.3973H17.8832C17.4129 47.3973 17.0312 47.0161 17.0312 46.5462C17.0312 46.0764 17.4129 45.6952 17.8832 45.6952H25.6952C26.1655 45.6952 26.5471 46.0764 26.5471 46.5462C26.5471 47.0161 26.1655 47.3973 25.6952 47.3973Z" fill="#FEBE15"/>
<path d="M64.3787 66.6362C64.1602 66.6362 63.9432 66.5523 63.7769 66.3862L58.2533 60.8686C57.9208 60.5364 57.9208 59.9986 58.2533 59.6664C58.5859 59.3342 59.1243 59.3342 59.4569 59.6664L64.9805 65.184C65.313 65.5162 65.313 66.054 64.9805 66.3862C64.8142 66.5523 64.5957 66.6362 64.3787 66.6362Z" fill="#FEBE15"/>
<path d="M31.4451 33.7377C31.2266 33.7377 31.0096 33.6539 30.8434 33.4878L25.3197 27.9702C24.9872 27.638 24.9872 27.1001 25.3197 26.7679C25.6523 26.4358 26.1907 26.4358 26.5233 26.7679L32.0469 32.2856C32.3794 32.6177 32.3794 33.1556 32.0469 33.4878C31.8806 33.6539 31.6621 33.7377 31.4451 33.7377Z" fill="#FEBE15"/>
<path d="M49.5196 68.922H40.7797C40.3094 68.922 39.9277 68.5407 39.9277 68.0709C39.9277 67.6011 40.3094 67.2198 40.7797 67.2198H49.5196C49.99 67.2198 50.3716 67.6011 50.3716 68.0709C50.3716 68.5407 49.99 68.922 49.5196 68.922Z" fill="#FEBE15"/>
<path d="M48.1044 72.3151H42.1928C41.7225 72.3151 41.3408 71.9339 41.3408 71.4641C41.3408 70.9943 41.7225 70.613 42.1928 70.613H48.1044C48.5747 70.613 48.9564 70.9943 48.9564 71.4641C48.9564 71.9339 48.5747 72.3151 48.1044 72.3151Z" fill="#FEBE15"/>
<path d="M46.1155 54.087H44.3529C43.9111 54.087 43.5516 53.728 43.5516 53.2866V51.8091C43.2586 51.7158 42.9736 51.5972 42.7012 51.4564L41.6544 52.502C41.3472 52.8057 40.8199 52.8041 40.5206 52.502L39.2743 51.2571C38.9623 50.9438 38.9623 50.4376 39.2743 50.1244L40.321 49.0788C40.1801 48.8051 40.0613 48.522 39.9679 48.2293H38.4888C38.047 48.2293 37.6875 47.8702 37.6875 47.4289V45.6667C37.6875 45.2253 38.047 44.8662 38.4888 44.8662H39.9679C40.0613 44.5736 40.1801 44.2889 40.321 44.0168L39.2743 42.9712C38.9639 42.6579 38.9639 42.1517 39.2743 41.8385L40.5222 40.592C40.8215 40.2899 41.3504 40.2883 41.6544 40.592L42.7012 41.6376C42.9736 41.4968 43.2586 41.3782 43.5516 41.2849V39.8074C43.5516 39.366 43.9111 39.007 44.3529 39.007H46.1155C46.5573 39.007 46.9168 39.366 46.9168 39.8074V41.2849C47.2097 41.3782 47.4932 41.4968 47.7672 41.6376L48.8139 40.592C49.1275 40.2804 49.6342 40.2804 49.9478 40.592L51.1957 41.8385C51.5061 42.1517 51.5061 42.6579 51.1957 42.9712L50.1489 44.0168C50.2898 44.2904 50.4086 44.5736 50.502 44.8662H51.9811C52.423 44.8662 52.7824 45.2253 52.7824 45.6667V47.4289C52.7824 47.8702 52.423 48.2293 51.9811 48.2293H50.502C50.4086 48.522 50.2914 48.8051 50.1489 49.0788L51.1957 50.1244C51.5061 50.4376 51.5061 50.9438 51.1957 51.2571L49.9494 52.5036C49.6358 52.8136 49.1291 52.8152 48.8155 52.5036L47.7687 51.458C47.4964 51.5987 47.2113 51.7174 46.9183 51.8107V53.2882C46.9183 53.7295 46.5589 54.0886 46.1171 54.0886L46.1155 54.087ZM44.6158 53.024H45.8526V51.6098C45.8526 51.2539 46.0949 50.9391 46.4401 50.8426C46.7806 50.7477 47.1116 50.6101 47.4188 50.4361C47.7307 50.2605 48.1266 50.3127 48.3784 50.5642L49.3809 51.5655L50.2566 50.6907L49.2542 49.6894C49.0024 49.4379 48.9501 49.0424 49.1275 48.7308C49.3017 48.4223 49.4379 48.0933 49.5345 47.7516C49.6295 47.4068 49.9462 47.1647 50.3025 47.1647H51.7183V45.9293H50.3025C49.9462 45.9293 49.6311 45.6872 49.5345 45.3408C49.4395 45.0007 49.3017 44.6717 49.1275 44.3616C48.9517 44.0516 49.004 43.6561 49.2558 43.4046L50.2582 42.4033L49.3824 41.5285L48.38 42.5298C48.1282 42.7813 47.7339 42.8335 47.4204 42.6579C47.1116 42.4839 46.7822 42.3463 46.4401 42.2514C46.0949 42.1549 45.8526 41.8401 45.8526 41.4842V40.07H44.6158V41.4842C44.6158 41.8401 44.3735 42.1549 44.0283 42.2514C43.6878 42.3463 43.3568 42.4839 43.0496 42.6579C42.7376 42.8335 42.3417 42.7813 42.0899 42.5298L41.0891 41.5285L40.2134 42.4033L41.2158 43.4046C41.4676 43.6561 41.5198 44.0516 41.3425 44.3632C41.1683 44.6717 41.0321 45.0007 40.9355 45.3424C40.8405 45.6872 40.5237 45.9293 40.1674 45.9293H38.7517V47.1647H40.1674C40.5237 47.1647 40.8389 47.4068 40.9355 47.7516C41.0305 48.0917 41.1683 48.4207 41.3425 48.7308C41.5183 49.0408 41.466 49.4363 41.2142 49.6878L40.2118 50.6892L41.0875 51.5639L42.0883 50.5626C42.3401 50.3111 42.7345 50.2589 43.048 50.4345C43.3568 50.6085 43.6862 50.7445 44.0283 50.841C44.3735 50.9375 44.6158 51.2523 44.6158 51.6082V53.0224V53.024ZM50.5591 48.0379C50.5591 48.0379 50.5591 48.0379 50.5591 48.0395C50.5591 48.0395 50.5591 48.0395 50.5591 48.0379ZM39.9093 45.0545C39.9093 45.0545 39.9093 45.0545 39.9093 45.0561C39.9093 45.0561 39.9093 45.0561 39.9093 45.0545Z" fill="#FEBE15"/>
<path d="M52.2505 47.4274V45.6652C52.2505 45.5165 52.1301 45.3963 51.9812 45.3963H50.3026C50.1823 45.3963 50.0793 45.314 50.0477 45.1985C49.9384 44.811 49.7848 44.444 49.5916 44.1007C49.5314 43.9947 49.5473 43.865 49.6328 43.7796L50.8205 42.5932C50.925 42.4888 50.925 42.3179 50.8205 42.212L49.5742 40.967C49.4697 40.8626 49.2986 40.8626 49.1925 40.967L48.0048 42.1534C47.9193 42.2388 47.7895 42.2531 47.6834 42.1946C47.3397 42.0016 46.9723 41.8481 46.5843 41.739C46.4687 41.7058 46.3864 41.6045 46.3864 41.4843V39.8075C46.3864 39.6588 46.266 39.5386 46.1172 39.5386H44.353C44.2042 39.5386 44.0838 39.6588 44.0838 39.8075V41.4843C44.0838 41.6045 44.0015 41.7073 43.8859 41.739C43.4979 41.8481 43.1305 42.0016 42.7868 42.1946C42.6807 42.2547 42.5509 42.2388 42.4654 42.1534L41.2777 40.967C41.1731 40.8626 41.0021 40.8626 40.896 40.967L39.6497 42.212C39.5452 42.3164 39.5452 42.4872 39.6497 42.5932L40.8374 43.7796C40.9229 43.865 40.9372 43.9947 40.8786 44.1007C40.6854 44.444 40.5318 44.811 40.4225 45.1985C40.3893 45.314 40.2879 45.3963 40.1676 45.3963H38.4889C38.3401 45.3963 38.2197 45.5165 38.2197 45.6652V47.4274C38.2197 47.5761 38.3401 47.6963 38.4889 47.6963H40.1676C40.2879 47.6963 40.3908 47.7786 40.4225 47.8941C40.5318 48.2816 40.6854 48.6486 40.8786 48.9919C40.9388 49.0979 40.9229 49.2276 40.8374 49.313L39.6497 50.4994C39.5452 50.6038 39.5452 50.7747 39.6497 50.8807L40.896 52.1256C41.0005 52.23 41.1716 52.23 41.2777 52.1256L42.4654 50.9392C42.5509 50.8538 42.6807 50.8395 42.7868 50.8981C43.1305 51.0911 43.4979 51.2445 43.8859 51.3537C44.0015 51.3869 44.0838 51.4881 44.0838 51.6083V53.2851C44.0838 53.4338 44.2042 53.554 44.353 53.554H46.1172C46.266 53.554 46.3864 53.4338 46.3864 53.2851V51.6083C46.3864 51.4881 46.4687 51.3853 46.5843 51.3537C46.9723 51.2445 47.3397 51.0911 47.6834 50.8981C47.7895 50.838 47.9193 50.8538 48.0048 50.9392L49.1925 52.1256C49.297 52.23 49.4681 52.23 49.5742 52.1256L50.8205 50.8807C50.925 50.7763 50.925 50.6054 50.8205 50.4994L49.6328 49.313C49.5473 49.2276 49.533 49.0979 49.5916 48.9919C49.7848 48.6486 49.9384 48.2816 50.0477 47.8941C50.0809 47.7786 50.1823 47.6963 50.3026 47.6963H51.9812C52.1301 47.6963 52.2505 47.5761 52.2505 47.4274Z" fill="#FEBE15"/>
<path d="M46.1154 53.9811H44.3529C43.9696 53.9811 43.6577 53.6695 43.6577 53.2867V51.7301C43.3188 51.6273 42.991 51.4913 42.6806 51.3252L41.5784 52.4262C41.3124 52.6903 40.8563 52.6872 40.595 52.4262L39.3487 51.1812C39.0779 50.9107 39.0779 50.4694 39.3487 50.1989L40.4509 49.0979C40.283 48.7862 40.1484 48.4588 40.0455 48.1218H38.4872C38.104 48.1218 37.792 47.8102 37.792 47.4274V45.6652C37.792 45.2824 38.104 44.9707 38.4872 44.9707H40.0455C40.1484 44.6338 40.2846 44.3064 40.4509 43.9947L39.3487 42.8937C39.0779 42.6232 39.0779 42.1819 39.3487 41.9114L40.5966 40.6649C40.8563 40.4038 41.3155 40.4023 41.5784 40.6649L42.6806 41.7658C42.991 41.5998 43.3188 41.4637 43.6577 41.3609V39.8059C43.6577 39.4231 43.9696 39.1115 44.3529 39.1115H46.1154C46.4987 39.1115 46.8106 39.4231 46.8106 39.8059V41.3609C47.148 41.4637 47.4757 41.5982 47.7877 41.7658L48.8899 40.6649C49.1607 40.3944 49.6041 40.3944 49.8733 40.6649L51.1212 41.9114C51.392 42.1819 51.392 42.6232 51.1212 42.8937L50.019 43.9947C50.1869 44.3064 50.3215 44.6338 50.4244 44.9707H51.9811C52.3643 44.9707 52.6763 45.2824 52.6763 45.6652V47.4274C52.6763 47.8102 52.3643 48.1218 51.9811 48.1218H50.4228C50.3199 48.4588 50.1837 48.7862 50.0174 49.0979L51.1196 50.1989C51.3904 50.4694 51.3904 50.9107 51.1196 51.1812L49.8717 52.4277C49.6009 52.6982 49.1575 52.6982 48.8883 52.4277L47.7861 51.3267C47.4757 51.4928 47.1479 51.6289 46.8091 51.7317V53.2883C46.8091 53.6711 46.4971 53.9827 46.1139 53.9827L46.1154 53.9811ZM44.5081 53.1301H45.9587V51.6083C45.9587 51.2999 46.1677 51.0262 46.4686 50.9439C46.8186 50.8458 47.1559 50.7066 47.471 50.5279C47.7434 50.3745 48.0854 50.4203 48.3024 50.6386L49.3792 51.7143L50.4054 50.6892L49.3286 49.6136C49.11 49.3953 49.0657 49.0536 49.2193 48.7831C49.3967 48.4667 49.5376 48.1298 49.6358 47.7802C49.7197 47.4812 49.9921 47.2724 50.3009 47.2724H51.8243V45.8234H50.3009C49.9921 45.8234 49.7181 45.613 49.6358 45.314C49.5376 44.966 49.3967 44.6275 49.2193 44.3111C49.0657 44.0422 49.1116 43.6989 49.3301 43.4806L50.407 42.4049L49.3808 41.3799L48.304 42.4555C48.0854 42.6738 47.745 42.7197 47.4726 42.5663C47.1559 42.3875 46.8186 42.2483 46.4686 42.1502C46.1677 42.0664 45.9587 41.7927 45.9587 41.4859V39.9657H44.5081V41.4859C44.5081 41.7943 44.299 42.068 43.9982 42.1502C43.6482 42.2483 43.3109 42.3875 42.9957 42.5663C42.7218 42.7181 42.3797 42.6738 42.1643 42.4555L41.0875 41.3799L40.0613 42.4049L41.1382 43.4806C41.3567 43.6989 41.401 44.0406 41.2474 44.3111C41.0701 44.6259 40.9291 44.9644 40.8309 45.314C40.747 45.613 40.4746 45.8234 40.1658 45.8234H38.6424V47.2724H40.1658C40.4746 47.2724 40.7486 47.4812 40.8309 47.7817C40.9291 48.1298 41.0701 48.4683 41.2474 48.7847C41.401 49.0536 41.3551 49.3968 41.1366 49.6151L40.0597 50.6908L41.0859 51.7159L42.1627 50.6402C42.3797 50.4219 42.7202 50.376 42.9941 50.5295C43.3109 50.7082 43.6482 50.8474 43.9982 50.9455C44.299 51.0293 44.5081 51.303 44.5081 51.6099V53.1317V53.1301Z" fill="#FEBE15"/>
</svg>
