<svg width="126" height="65" viewBox="0 0 126 65" fill="none" xmlns="http://www.w3.org/2000/svg">
<path fill-rule="evenodd" clip-rule="evenodd" d="M102.037 60.9453C100.979 61.7377 100.716 60.999 100.822 59.975C101.121 57.086 105.913 53.5155 106.489 53.5155C106.652 53.5155 104.154 59.481 102.036 60.9453M111.758 50.3158C116.212 46.4653 120.502 40.8247 122.892 35.5637C123.87 33.3941 123.109 32.6888 122.24 32.6888C122.24 32.6888 116.918 42.7768 113.116 45.5425C114.366 41.1496 115.94 36.1598 117.733 31.9298C118.059 31.1162 119.471 27.9164 120.666 27.7536C119.634 26.3976 118.765 25.9635 117.896 26.0181C115.56 26.2347 113.823 30.6821 113.008 32.4176C111.095 36.2725 108.871 40.1679 106.809 42.5312C105.902 43.5719 102.761 46.5657 102.648 43.358C102.636 43.0243 102.684 42.6474 102.799 42.2344C103.73 38.8735 105.676 32.7434 107.36 29.6519C108.012 28.4588 108.773 27.8081 109.207 27.7536C108.772 26.6142 107.794 25.9098 106.763 26.0181C105.785 26.1264 104.753 26.94 103.885 28.73C103.124 30.1943 100.952 36.7568 99.3766 41.2588C98.8087 42.96 98.6615 45.9088 99.9347 47.3211C101.2 48.7247 103.489 48.8524 105.552 47.0279C107.288 45.4923 109.307 42.7715 111.162 39.9574C110.076 43.3201 109.098 46.6282 108.285 49.069C108.176 49.3402 108.067 49.5568 107.958 49.6659C107.415 50.3166 98.1951 54.4392 98.1281 60.2418C98.0796 64.4656 101.994 65.855 104.646 64.2005C107.47 62.465 109.751 56.7162 111.76 50.3166L111.758 50.3158ZM80.6931 29.055C82.7563 30.248 78.0321 41.1496 74.5564 37.5158C75.1542 35.4008 77.9236 27.8619 80.6931 29.055ZM60.4357 37.2992C61.522 33.557 65.3231 28.0793 66.464 28.3505C67.2787 28.5134 64.0199 38.7635 60.4357 37.2992ZM39.0921 44.4577C35.0195 47.4946 39.0374 32.5893 43.7087 29.489C48.9223 26.0181 43.9803 40.7613 39.0921 44.4577ZM30.6197 35.9969C29.6419 41.0951 21.5495 43.9699 14.1096 43.8616C14.2181 41.1496 14.9781 36.9734 16.2275 32.6888C23.5052 30.4109 31.5975 31.3328 30.6197 35.9969ZM5.30221 23.9982C6.50751 21.2008 9.10063 18.893 11.5941 17.2676C10.7882 22.9847 10.201 27.61 7.64492 30.3872C6.83727 31.2642 5.23079 31.3522 4.62946 30.1961C3.85179 28.6992 4.71411 25.6051 5.30133 23.9982H5.30221ZM63.5103 5.99878C62.1427 1.97573 53.4966 2.89762 51.9871 9.78673C50.9406 14.5635 53.7585 16.9303 58.2914 17.5872C58.8918 17.6744 59.5276 17.7422 60.1862 17.7932C61.6384 14.4385 64.6512 9.35264 63.5103 5.9979V5.99878ZM125.824 20.1979C104.845 20.4841 84.1961 19.6106 62.6594 21.4676C60.5503 26.8739 58.518 33.5253 57.34 37.9499C59.5126 32.9063 63.2598 25.6932 67.1702 25.9644C71.8407 26.3439 69.0165 40.174 61.902 40.2286C61.6675 42.4863 63.6487 46.8809 66.3176 43.3765C68.462 40.5606 71.4298 34.3935 72.1255 32.982C72.4006 32.3586 72.6589 31.8162 72.8732 31.3883C74.3941 28.4051 76.6751 25.9644 80.0962 25.9644C87.8076 26.5613 80.8562 44.5132 74.0132 39.9574C73.6332 43.6996 75.5342 44.6761 77.0551 44.7844C79.9145 44.9746 84.7816 35.392 85.9675 33.1528C86.6684 31.2069 87.3086 29.5683 87.7538 28.7309C88.677 26.7788 89.8717 25.9652 90.9042 26.019C91.8273 26.0735 92.642 26.7242 93.0767 27.7544C90.8504 28.0256 89.1125 33.7208 87.7001 38.1674C89.4926 34.751 94.543 25.9644 98.9966 25.9644C102.961 25.9644 101.766 30.3572 100.898 32.6351C100.3 34.154 98.725 37.7879 99.3228 38.4386C94.7061 38.0591 95.8471 34.0994 98.2365 28.6763C95.9009 28.0793 91.122 35.7266 87.1569 44.0245C85.636 47.2243 84.0612 48.1462 82.8665 48.3628C81.7256 48.5803 80.9655 47.9833 80.9655 47.9833C81.3226 46.8333 81.6709 45.6446 82.0756 44.5106C78.1555 51.2993 70.1672 47.7103 69.8454 42.1658C67.4348 50.9356 59.5708 48.2862 58.4818 41.8541C57.7209 42.6131 56.0377 46.0303 56.1462 48.3082C53.2647 46.9909 52.8248 44.5695 52.7683 42.4942C51.9854 45.9766 45.9844 51.5 43.1127 44.8372C38.0993 51.2738 33.1 47.3793 33.7172 41.7458C33.8803 35.9423 38.9307 25.9635 44.7959 25.9635C47.7831 25.9635 47.8916 28.7292 47.8916 28.7292C49.6841 24.987 52.3451 25.5831 53.2136 27.7527C52.7789 27.8073 52.0189 28.458 51.3664 29.6511C49.6832 32.761 47.7823 38.9079 46.8044 42.2793C46.3698 43.6987 46.7498 44.7835 47.076 44.7835C48.597 44.7835 54.679 32.5893 54.679 32.6985H54.6905C55.842 28.8762 57.3127 24.8338 58.7173 21.3276C57.1046 21.1849 55.618 20.9199 54.3563 20.4691C49.3473 18.6755 47.2444 14.0475 48.3492 9.00308C49.5977 3.30266 53.9798 -0.25989 59.9199 0.0148298C71.2852 0.540495 67.127 13.9392 64.1319 17.9438C81.4945 18.7424 110.84 19.1043 125.823 20.1979H125.824ZM31.9776 12.7303C29.9681 11.266 27.6871 10.5316 25.3515 10.4524C14.7304 10.0905 2.68881 14.398 0.270276 26.092C-0.263161 28.6728 0.0339759 30.6865 0.80283 32.1658C1.94817 34.3706 4.18508 35.5399 6.6477 35.3215C8.20393 35.1833 9.72929 34.4798 10.8147 33.2999C14.4879 29.3094 15.2691 22.1438 15.9895 16.6389C16.0706 16.0172 16.1561 15.407 16.2443 14.8056C21.7453 12.4688 27.5699 11.8093 29.6966 13.779C32.0534 15.9618 30.2935 24.1197 17.9654 27.7536C20.4095 22.0047 24.2105 17.6118 25.6777 17.6118C24.9715 16.2558 24.1568 15.6597 23.2336 15.6597C17.9654 15.768 9.98234 35.2934 10.5793 43.5367C7.86359 43.1026 5.42036 42.127 3.73629 40.6081C2.26118 44.1311 5.48913 46.7981 8.04522 47.7323C9.95236 48.4297 12.3065 48.7493 14.815 48.7432C22.418 48.7256 31.4882 44.8927 33.6061 36.9743C35.0186 31.6595 31.542 28.4051 25.1884 28.5134C29.9135 25.6932 34.0408 20.8662 34.0954 16.9065C34.0954 15.334 33.4438 13.8336 31.9776 12.7303Z" fill="#454F54"/>
<path fill-rule="evenodd" clip-rule="evenodd" d="M87.3271 20.5678C88.7519 21.0495 90.0075 22.7083 90.2535 24.133C90.4951 22.5507 89.1822 21.0231 87.9919 20.5573C88.3234 20.552 88.6549 20.5485 88.9874 20.5441C90.2526 21.5628 91.0761 23.0324 91.1811 24.6684C87.4717 25.3904 84.9694 23.4401 83.8496 20.633C85.0091 20.6075 86.1676 20.5854 87.3271 20.567M84.9667 18.4071C86.008 16.6205 88.297 15.5278 90.324 15.7303C88.9203 14.9704 85.5928 15.9584 84.8371 18.4062L83.9131 18.3806C85.1572 15.6194 88.3798 13.9112 91.8044 15.276C91.3583 16.735 90.6476 17.8004 89.7289 18.54L84.9659 18.4079L84.9667 18.4071Z" fill="#2F8B83"/>
<path fill-rule="evenodd" clip-rule="evenodd" d="M94.2364 20.4972C95.6383 20.8045 96.9221 22.43 97.1619 23.8124C97.3956 22.2847 96.0333 20.8116 94.9048 20.4937L95.9355 20.4893C97.1284 21.4174 97.9079 22.7786 98.0057 24.2984C94.5838 24.9641 92.2914 23.1291 91.2959 20.5175C92.2764 20.5087 93.2568 20.5008 94.2373 20.4964M92.279 18.6094C93.2251 16.9831 95.3826 15.9881 97.2272 16.1722C95.9505 15.481 92.9218 16.3809 92.2376 18.6085L91.3964 18.5848C92.5268 16.0727 95.4576 14.5168 98.5727 15.7592C98.1653 17.0905 97.5155 18.0617 96.6761 18.7345C95.3826 18.6975 94.0892 18.6605 92.7957 18.6244L92.279 18.6094Z" fill="#2F8B83"/>
<path fill-rule="evenodd" clip-rule="evenodd" d="M101.067 20.4956C102.37 20.7316 103.578 22.2426 103.801 23.5237C104.019 22.0938 102.699 20.7166 101.658 20.4842L102.662 20.486C103.759 21.3304 104.477 22.5745 104.567 23.9666C101.437 24.5759 99.347 22.8827 98.4512 20.4851C99.3364 20.4842 100.221 20.4842 101.106 20.4851C101.093 20.4886 101.08 20.4921 101.068 20.4965M99.3523 18.813C100.207 17.324 102.176 16.4127 103.86 16.58C102.696 15.9496 99.9307 16.7746 99.3197 18.8121L98.5526 18.7892C99.5745 16.4964 102.244 15.0726 105.083 16.204C104.707 17.4315 104.106 18.3225 103.325 18.9345C102.001 18.8931 100.677 18.8526 99.3514 18.813H99.3523Z" fill="#2F8B83"/>
<path fill-rule="evenodd" clip-rule="evenodd" d="M107.531 20.5181C108.732 20.7365 109.848 22.1303 110.053 23.3128C110.259 21.9709 108.995 20.6783 108.027 20.4978L108.856 20.4996H108.992C110.011 21.2797 110.677 22.4323 110.76 23.7214C107.864 24.2849 105.932 22.7123 105.109 20.4899L107.61 20.4961C107.583 20.5022 107.556 20.5093 107.531 20.5181ZM105.917 19.0177C106.689 17.6115 108.533 16.7469 110.107 16.9036C109.022 16.3163 106.432 17.0973 105.901 19.0168L105.187 18.993C106.113 16.8472 108.596 15.5045 111.236 16.5567C110.876 17.7348 110.289 18.5757 109.528 19.1427C108.324 19.0996 107.121 19.0573 105.917 19.0177Z" fill="#2F8B83"/>
<path fill-rule="evenodd" clip-rule="evenodd" d="M113.649 20.5094C114.683 20.6996 115.642 21.898 115.818 22.915C115.988 21.7976 114.977 20.7207 114.156 20.5103H114.925C115.79 21.1812 116.356 22.1656 116.427 23.2672C113.943 23.7506 112.284 22.4087 111.57 20.5076C112.263 20.5094 112.956 20.5103 113.649 20.5103M112.242 19.245C112.897 18.0184 114.499 17.2621 115.863 17.3977C114.924 16.8896 112.675 17.572 112.235 19.2441L111.618 19.2203C112.407 17.3589 114.553 16.1879 116.836 17.0983C116.517 18.1426 115.991 18.8796 115.307 19.3674C114.285 19.3242 113.263 19.2837 112.242 19.2441V19.245Z" fill="#2F8B83"/>
<path fill-rule="evenodd" clip-rule="evenodd" d="M120.242 19.6009C120.86 19.195 121.332 18.561 121.613 17.6418C119.69 16.8757 117.884 17.876 117.238 19.453C118.24 19.4988 119.242 19.5481 120.242 19.6009ZM119.012 20.5026C119.853 20.6963 120.619 21.6701 120.762 22.4987C120.902 21.5829 120.092 20.6998 119.414 20.5008L120.026 20.4982C120.743 21.0582 121.212 21.8779 121.271 22.7928C119.205 23.1952 117.821 22.0857 117.222 20.5078C117.819 20.5061 118.416 20.5052 119.012 20.5026ZM117.765 19.4547C118.305 18.4175 119.653 17.7756 120.801 17.8901C120.013 17.463 118.119 18.0415 117.765 19.4547Z" fill="#2F8B83"/>
<path fill-rule="evenodd" clip-rule="evenodd" d="M124.635 19.865C125.243 19.5437 125.706 18.9889 125.967 18.1348C124.35 17.4903 122.834 18.3682 122.34 19.7189C123.105 19.7647 123.87 19.8131 124.635 19.865ZM123.781 20.4717C124.49 20.6003 125.148 21.4235 125.269 22.1209C125.388 21.3443 124.673 20.5959 124.106 20.4664L124.641 20.4603C125.242 20.9199 125.637 21.6005 125.686 22.3613C123.989 22.6915 122.854 21.7793 122.363 20.4823C122.838 20.4788 123.312 20.4744 123.787 20.4691L123.781 20.4708V20.4717ZM122.81 19.6229C123.253 18.7723 124.36 18.2458 125.302 18.3391C124.655 17.9887 123.101 18.4633 122.81 19.6229Z" fill="#2F8B83"/>
</svg>
