<svg width="145" height="51" viewBox="0 0 145 51" fill="none" xmlns="http://www.w3.org/2000/svg">
<path d="M38.8443 50.2666C36.517 50.2666 34.6933 49.6072 33.3748 48.2863C32.0552 46.9665 31.3965 45.204 31.3965 42.9978C31.3965 40.6062 32.2649 38.8819 34.0034 37.8255C35.7407 36.7696 38.3476 36.1796 41.8235 36.055L45.6408 35.9151V29.9974C45.6408 28.6309 45.5476 27.5671 45.3618 26.8059C45.1754 26.0453 44.8804 25.5014 44.4775 25.1749C44.074 24.8484 43.5153 24.6857 42.8015 24.6857C41.5603 24.6857 40.722 25.2141 40.2878 26.2695C39.8531 27.3259 39.636 29.2675 39.636 32.0939C37.5565 32.0939 35.9891 31.8537 34.9343 31.3719C33.8127 30.8604 33.2874 29.9715 33.3579 28.7051C33.4124 27.7261 33.8996 26.8054 34.6642 26.1926C35.5316 25.4977 36.6923 24.9952 38.1464 24.6857C39.6047 24.3756 41.2028 24.2197 42.9408 24.2197C46.199 24.2197 48.6433 24.8097 50.2721 25.9901C51.9015 27.1711 52.7159 29.2214 52.7159 32.141V46.0266C52.7159 46.8652 52.8011 47.5257 52.9722 48.007C53.1427 48.4888 53.4376 48.8302 53.8565 49.0321C54.2754 49.2341 54.8261 49.3348 55.5092 49.3348H55.6956V49.8007H50.4352C47.8389 49.8007 45.734 47.6937 45.734 45.0948H45.6408C45.2373 46.4311 44.6935 47.4711 44.0115 48.2169C43.3284 48.9622 42.5452 49.4912 41.6604 49.8007C40.776 50.1108 39.8372 50.2666 38.8443 50.2666ZM41.2182 48.9622C42.1179 48.9622 42.9016 48.6208 43.5688 47.937C44.236 47.2537 44.748 46.3691 45.105 45.2808C45.4613 44.1942 45.6403 43.0445 45.6403 41.8328V36.381L43.5455 36.4743C41.6837 36.5676 40.3953 37.103 39.682 38.082C38.9677 39.0605 38.6113 40.6528 38.6113 42.8579C38.6113 44.3485 38.7045 45.5448 38.8909 46.4454C39.0773 47.347 39.3638 47.9911 39.7519 48.3791C40.1395 48.7676 40.6283 48.9616 41.2182 48.9616V48.9622Z" fill="#294C9F"/>
<path d="M135.783 50.2666C133.486 50.2666 131.461 49.8548 129.708 49.0321C127.955 48.2095 126.597 46.8578 125.635 44.9782C124.673 43.0991 124.192 40.5749 124.192 37.4062C124.192 34.0514 124.689 31.418 125.682 29.5082C126.675 27.5978 128.048 26.2393 129.802 25.4309C131.554 24.6236 133.564 24.2197 135.83 24.2197C137.722 24.2197 139.336 24.4291 140.671 24.8484C142.005 25.2677 143.029 25.8582 143.743 26.6188C144.456 27.3805 144.814 28.2578 144.814 29.2516C144.814 29.8416 144.651 30.4326 144.325 31.0221C143.999 31.6126 143.402 32.1018 142.533 32.4898C141.664 32.8784 140.422 33.0724 138.808 33.0724C138.808 30.9288 138.715 29.2511 138.529 28.0394C138.342 26.8282 138.009 25.9663 137.528 25.4532C137.047 24.9406 136.387 24.6846 135.55 24.6846C134.526 24.6846 133.703 25.0731 133.083 25.8497C132.462 26.6262 132.019 27.9312 131.756 29.7637C131.492 31.5972 131.361 34.1283 131.361 37.359C131.361 40.3412 131.554 42.7413 131.943 44.5584C132.33 46.376 132.951 47.6964 133.804 48.519C134.657 49.3427 135.767 49.7541 137.132 49.7541C138.219 49.7541 139.196 49.5288 140.065 49.0782C140.933 48.6282 141.663 47.8904 142.253 46.8647C142.842 45.8395 143.231 44.473 143.417 42.7641C143.913 42.9199 144.301 43.2146 144.581 43.6493C144.86 44.085 145 44.5812 145 45.1404C145 45.9169 144.681 46.7014 144.046 47.4933C143.409 48.2858 142.408 48.9457 141.043 49.4737C139.677 50.0016 137.924 50.2661 135.783 50.2661V50.2666Z" fill="#294C9F"/>
<path d="M82.4138 50.2666C78.3793 50.2666 75.3223 49.1413 73.2434 46.8885C71.1639 44.6363 70.125 41.4914 70.125 37.4528C70.125 33.0729 71.1332 29.7727 73.1507 27.5512C75.1677 25.3307 78.0071 24.2197 81.6693 24.2197C85.0514 24.2197 87.7128 25.1675 89.6525 27.0619C91.5916 28.9569 92.5617 31.753 92.5617 35.4492V36.5676H77.2938C77.2938 39.7056 77.5029 42.2446 77.9223 44.1857C78.3412 46.1274 79.0084 47.5405 79.9239 48.4257C80.839 49.3115 82.0262 49.7541 83.485 49.7541C84.5711 49.7541 85.5566 49.5208 86.4409 49.0549C87.3252 48.589 88.0702 47.8432 88.675 46.8186C89.2802 45.7934 89.6758 44.4269 89.8622 42.718C90.4822 42.8425 90.9249 43.107 91.1886 43.5104C91.4518 43.9143 91.5842 44.3803 91.5842 44.9082C91.5842 45.778 91.2426 46.6251 90.5601 47.4478C89.877 48.2715 88.8608 48.9468 87.5111 49.4747C86.1613 50.0027 84.462 50.2672 82.4138 50.2672V50.2666ZM85.4861 36.1017C85.4861 33.2748 85.377 31.0305 85.1605 29.3683C84.9428 27.707 84.5552 26.5107 83.9966 25.7802C83.4379 25.0509 82.6621 24.6857 81.6693 24.6857C80.6764 24.6857 79.854 25.0509 79.2022 25.7802C78.5503 26.5107 78.0769 27.707 77.7825 29.3683C77.4876 31.0305 77.3245 33.2748 77.2938 36.1017H85.4867H85.4861Z" fill="#294C9F"/>
<path d="M124.479 49.3354C124.044 49.3354 123.564 49.266 123.036 49.1255C122.508 48.9856 122.066 48.6993 121.71 48.2636C121.353 47.829 121.174 47.1765 121.174 46.3066V31.9408C121.174 28.0114 117.992 24.8257 114.067 24.8257H110.235V25.2916H110.794C111.228 25.2916 111.702 25.3542 112.214 25.4777C112.726 25.6022 113.168 25.8667 113.54 26.2701C113.913 26.674 114.099 27.2953 114.099 28.1338V42.7833C114.099 46.6591 117.237 49.8008 121.109 49.8008H125.038V49.3349H124.479V49.3354Z" fill="#294C9F"/>
<path d="M115.099 19.8167C115.734 20.3606 116.503 20.632 117.403 20.632C118.303 20.632 119.079 20.3606 119.73 19.8167C120.382 19.2734 120.708 18.4264 120.708 17.2772C120.708 16.128 120.381 15.2433 119.73 14.7143C119.078 14.1864 118.302 13.9219 117.403 13.9219C116.503 13.9219 115.734 14.1864 115.099 14.7143C114.462 15.2428 114.145 16.0967 114.145 17.2772C114.145 18.4576 114.462 19.2734 115.099 19.8167Z" fill="#294C9F"/>
<path d="M109.445 25.2895V24.8236H103.487V17.1816H103.021C102.826 18.0716 102.574 18.8826 102.263 19.6093C102.132 19.9263 101.988 20.229 101.834 20.5131C101.322 21.4635 100.675 22.2464 99.9024 22.8661C99.0647 23.5509 98.0681 24.0497 96.9233 24.3571C95.7737 24.6694 94.4376 24.8231 92.92 24.8231H92.5615V25.289H93.1154C93.5528 25.289 94.023 25.3542 94.5398 25.4756C95.0471 25.6012 95.4893 25.8668 95.8621 26.2675C96.1877 26.6216 96.3694 27.1389 96.4112 27.8285C96.416 27.9266 96.4207 28.0241 96.4207 28.1312V42.7812C96.4207 46.6581 99.563 49.7987 103.436 49.7987H107.36V49.3328H106.802C106.368 49.3328 105.889 49.2628 105.363 49.1234C104.833 48.9835 104.391 48.6994 104.032 48.2615C103.678 47.8279 103.502 47.176 103.502 46.3045V31.9387C103.502 31.794 103.497 31.6546 103.488 31.5099V25.289H109.446L109.445 25.2895Z" fill="#294C9F"/>
<path d="M25.3459 34.4713C23.375 33.0428 20.5431 32.2975 16.8507 32.2349V32.1417C19.0223 32.0181 20.8539 31.6757 22.3435 31.1165C23.8331 30.5578 24.9657 29.75 25.7415 28.6936C26.5167 27.6377 26.9054 26.3168 26.9054 24.7329C26.9054 22.0614 25.7955 20.0265 23.5773 18.6287C21.3581 17.2309 18.03 16.5317 13.5925 16.5317H0V16.9977H1.90843C2.34264 16.9977 2.74667 17.0756 3.11893 17.2309C3.49119 17.3867 3.78561 17.6735 4.00325 18.0933C4.21982 18.5126 4.32944 19.1418 4.32944 19.9803V42.3359C4.32944 46.4593 7.66865 49.8024 11.7884 49.8024H14.9894C19.3956 49.8024 22.7168 49.0418 24.9509 47.5189C27.1855 45.9971 28.3023 43.7761 28.3023 40.8554C28.3023 37.9347 27.3169 35.9009 25.3465 34.4718L25.3459 34.4713ZM11.6841 16.9977H13.36C15.439 16.9977 16.9132 17.5728 17.7821 18.722C18.6506 19.8717 19.0853 21.8133 19.0853 24.5463C19.0853 26.3486 18.8989 27.8078 18.5267 28.9268C18.1539 30.0447 17.5566 30.8605 16.7342 31.3731C15.9118 31.8856 14.8178 32.1417 13.4527 32.1417H11.6835V16.9977H11.6841ZM19.1785 47.4017C18.3096 48.6914 16.8353 49.3354 14.7564 49.3354H11.6841V32.6071H14.8496C16.2147 32.6071 17.3087 32.8869 18.1311 33.4456C18.9529 34.0048 19.5508 34.8906 19.9236 36.1018C20.2958 37.3135 20.4822 38.9292 20.4822 40.9482C20.4822 43.9616 20.0475 46.1131 19.179 47.4017H19.1785Z" fill="#294C9F"/>
<path d="M98.3218 8.32857C98.2149 7.86741 98.0703 7.40572 97.8934 6.96789C97.7446 6.60426 97.5672 6.25018 97.3861 5.90564C95.7478 3.18428 93.0943 1.23681 90.0124 0.491012C89.2351 0.285876 88.4392 0.145939 87.6386 0.0807405C84.3195 -0.24525 80.7118 0.411502 76.304 2.13104C75.0564 2.65739 73.8184 3.2076 72.5941 3.76205C70.7789 4.60538 69.0049 5.50968 67.2548 6.47864C66.459 6.91647 65.6673 7.36862 64.8852 7.82978L62.8746 8.97578C61.5947 9.70727 60.282 10.4483 58.9598 11.175L57.0466 12.2187C53.476 9.8048 49.3753 8.28616 45.0924 7.79691C43.1888 7.54513 36.639 6.96259 32.1841 10.1128C30.9598 10.9513 30.1544 12.2654 29.9542 13.7379C29.8192 14.9353 30.2243 16.1423 31.062 17.0089C32.3795 18.2949 34.1434 19.0264 35.9866 19.0454C41.2285 19.3481 46.4321 17.848 51.2641 15.7559C52.1717 15.3366 53.1355 14.9077 54.0526 14.4556C56.1337 17.2422 57.6275 20.4151 58.4514 23.7938C59.0937 26.3847 59.331 29.0404 59.3733 31.7103V42.7537C59.3733 46.6444 62.5246 49.7988 66.4113 49.7988H70.3123V49.3329H69.7537C69.3163 49.3329 68.8366 49.2629 68.3107 49.1235C67.7801 48.9836 67.338 48.6995 66.9843 48.2616C66.6258 47.828 66.4489 47.1761 66.4489 46.3046V34.5531C66.3276 22.7686 61.8965 16.9395 59.4295 14.3909C59.1361 14.0883 58.8708 13.8269 58.6426 13.6128C58.2703 13.291 57.8515 12.9794 57.4977 12.6857L57.8377 12.5039L58.9825 11.8795C60.3699 11.0876 61.7054 10.2951 63.0927 9.55885C63.7213 9.19099 64.3726 8.82259 65.0107 8.47328C65.8484 7.97449 66.7052 7.48576 67.5567 7.02408C69.3724 6.02225 71.22 5.09039 73.0961 4.21897C74.1901 3.71116 75.3164 3.23569 76.4427 2.765C80.7579 1.07355 84.2676 0.435355 87.512 0.751804C88.0288 0.803221 88.5313 0.87743 89.0386 0.980263C89.8298 1.14776 90.6029 1.38576 91.3522 1.69797C93.6095 2.55986 95.5137 4.17232 96.7518 6.25495C97.222 7.11684 97.5339 8.05346 97.6737 9.02296C97.7298 9.38181 97.7621 9.74544 97.7716 10.1133V10.9285C97.7716 11.1989 97.725 11.3711 97.6922 11.5948C97.6599 11.8138 97.6366 11.8885 97.6038 12.047C97.5757 12.2007 97.5572 12.2378 97.5249 12.3497C97.5016 12.4615 97.4735 12.5686 97.4412 12.6666C97.3946 12.7737 97.3666 12.8855 97.3295 12.9926C97.3014 13.0859 97.2691 13.1744 97.2363 13.263V13.3096C97.0642 13.7151 96.8497 14.1063 96.5987 14.4747C96.4309 14.7217 96.245 14.9502 96.0401 15.1643C95.5047 15.7749 94.8857 16.3013 94.2106 16.7487C91.8134 18.333 88.373 18.6124 85.934 16.9353C84.6679 16.0638 83.8159 14.4519 84.2162 12.9698C84.4116 12.2431 84.8723 11.6229 85.3473 11.0409C86.2178 9.96011 87.163 8.93497 88.1681 7.97979C87.3722 7.09458 86.4646 6.26979 85.3706 5.79432C84.2766 5.32362 82.9639 5.24941 81.9212 5.82719C80.3618 6.69385 79.8449 8.78602 80.2548 10.5241C80.7764 12.7514 82.4381 14.7689 84.0256 16.358C84.086 16.4184 84.1468 16.4836 84.2072 16.5303C84.212 16.5398 84.2167 16.5441 84.2257 16.5488C84.3703 16.6935 84.5191 16.8329 84.6679 16.9681C84.7378 17.0333 84.7982 17.1033 84.8681 17.1595L85.1196 17.3646L85.2313 17.4531C85.2361 17.4579 85.2409 17.4579 85.2499 17.4627C86.5626 18.306 88.0802 18.7438 89.6397 18.7438C89.7514 18.7576 89.8631 18.7576 89.9701 18.7438C91.2457 18.7576 92.5071 18.4878 93.6662 17.9519C94.0152 17.7796 94.3646 17.5841 94.6951 17.3741C95.1605 17.0667 95.5937 16.7216 95.9982 16.3352L96.0496 16.2886C96.245 16.1253 96.4314 15.9483 96.6173 15.7574C96.729 15.6456 96.827 15.5338 96.9339 15.4171C97.0923 15.212 97.2363 14.9931 97.3665 14.7694C98.0459 13.6605 98.4463 12.4117 98.5395 11.121C98.5442 11.0091 98.5442 10.8973 98.5395 10.7854C98.549 10.6269 98.549 10.4637 98.549 10.3057C98.549 9.63942 98.4701 8.9779 98.3208 8.33016L98.3218 8.32857ZM51.0973 15.1548H51.0602C46.3119 17.2236 41.1872 18.7051 36.0295 18.4025C34.3493 18.3929 32.7247 17.7457 31.5095 16.5854C30.7925 15.8396 30.4435 14.8192 30.5505 13.7941C30.7417 12.5081 31.4581 11.3664 32.5241 10.6301C35.2474 8.69166 39.2411 8.10912 42.6624 8.24906C43.1003 8.23952 43.5282 8.26761 43.9566 8.33758C46.0795 8.63601 49.9334 9.77247 53.7132 13.9616C52.8892 14.3438 52.0002 14.7678 51.0973 15.1542V15.1548Z" fill="#294C9F"/>
</svg>
