<svg width="140" height="38" viewBox="0 0 140 38" fill="none" xmlns="http://www.w3.org/2000/svg">
<path d="M11.0362 36.6922C9.65285 36.0548 8.61484 34.7315 7.8735 33.4082C6.44015 30.9574 5.55079 28.2123 4.66144 25.5168C3.42608 21.7916 2.3887 17.9686 1.49871 14.1449C0.857314 11.3515 0.313325 8.55753 0.016662 5.71457C-0.0326765 5.07708 0.016662 4.34234 0.313325 3.80274C0.659327 3.21482 1.3507 2.7731 1.94403 2.47945C2.78404 2.13624 3.62406 1.94048 4.46408 1.74409C5.50146 1.49875 6.63814 1.44981 7.67614 1.79303C8.81283 2.13624 9.55354 2.92055 9.89954 4.09701C10.4429 5.9599 11.5796 16.1057 11.8762 18.0665C12.0243 19.194 12.2222 20.3209 12.6176 21.3995C12.7656 21.9385 13.2602 22.9681 13.8036 23.017C14.347 23.066 14.7916 22.2817 15.039 21.7916C15.9777 19.733 18.1024 9.04756 18.597 6.79315C18.8937 5.46986 19.1404 3.95019 20.0797 2.92118C21.5624 1.20574 25.0212 1.9411 26.9979 3.01906C27.7392 3.41121 28.4306 3.90125 28.8259 4.58767C29.2212 5.2741 29.3693 6.05841 29.3199 6.84209C29.3199 8.8518 28.6773 10.8615 27.9859 12.7727C26.5532 17.1354 25.5645 21.6442 24.0331 26.0068C23.2424 28.1634 22.4024 30.3199 21.2164 32.3296C20.4751 33.6039 19.635 34.8293 18.4984 35.7605C17.8557 36.2995 17.0656 36.7406 16.2256 36.9369C14.5456 37.3291 12.6182 37.427 11.0375 36.6916L11.0362 36.6922Z" fill="#113872"/>
<path d="M41.0286 25.1735C38.1625 24.7324 35.0991 23.4581 33.3197 21.203C31.2937 18.6543 30.5524 15.0271 30.849 11.7919C31.0464 9.73329 31.7384 7.62569 32.9737 5.91025C33.7644 4.73379 34.8018 3.75372 35.9878 3.01835C39.2492 0.9597 43.7953 0.273274 47.5507 1.35185C49.6261 1.98934 51.6028 3.50839 52.5415 5.42022C53.5795 7.57675 53.4802 11.5472 51.8002 13.2627C51.0588 13.9491 50.0708 14.4391 49.1321 14.6838C46.76 15.2718 44.2893 14.9781 41.8686 14.9781C41.0286 14.9781 39.9412 15.0271 39.3485 15.6156C39.0025 16.0078 39.0025 16.4488 39.2498 16.8899C40.4852 18.8507 44.0433 18.9975 46.2173 18.2622C47.502 17.7721 48.7867 17.2325 50.1707 17.0857C50.8134 17.0368 51.5048 17.1836 51.9988 17.6247C53.6295 19.2912 53.7775 21.9873 51.8014 23.2121C48.6887 25.0744 44.6366 25.7608 41.0292 25.1729L41.0286 25.1735ZM49.7754 37.4765C48.046 37.2807 46.366 37.1333 44.6366 37.1822C41.3259 37.2311 37.9164 37.8686 34.6057 37.4765C33.8644 37.3786 33.0243 37.2311 32.3823 36.79C31.839 36.3979 31.493 35.9568 31.3449 35.3193C31.0976 34.3392 31.0976 33.2607 31.1476 32.2316C31.1969 31.3005 31.3449 30.3694 31.8889 29.634C32.3336 28.9965 33.1736 28.6539 33.9643 28.5554C34.063 28.5065 34.755 28.3101 34.8537 28.2612C36.8797 27.8201 38.9551 27.6732 41.0305 27.5747C44.6379 27.4769 52.3461 26.9868 54.2241 30.0255C54.7181 30.8098 54.9161 31.7899 54.9654 32.7217C55.0641 34.0939 55.0641 35.6625 54.2241 36.7411C53.8287 37.2311 53.1367 37.5254 52.4947 37.6233C51.6053 37.7212 50.6666 37.6233 49.7773 37.4765H49.7754ZM42.9559 10.8119C44.1419 10.8119 45.328 10.5665 46.316 10.0765C47.0573 9.73329 47.7487 8.80216 47.5514 8.01785C47.4033 7.42993 46.7113 6.98884 46.118 6.69456C44.784 6.15559 43.1039 6.05708 41.8192 6.69456C40.9299 7.13566 39.9412 8.26318 40.1392 9.24325C40.3865 10.2233 41.9179 10.8119 42.9559 10.8119Z" fill="#113872"/>
<path d="M58.6209 36.7903C58.2748 36.4471 58.0775 35.9081 57.9782 35.4181C57.8302 34.1927 57.8795 32.9673 57.9288 31.7419C58.1262 24.2426 57.8302 16.7434 57.7315 9.24415C57.7315 8.90093 57.4348 6.69546 57.4348 6.35225C57.3362 5.32323 57.2375 4.29359 57.5828 3.36246C57.7802 2.82348 58.2255 2.43133 58.7195 2.13706C59.9055 1.54914 63.167 1.49957 64.4023 1.94067C64.7977 2.13706 65.193 2.33282 65.4896 2.67603C65.9343 3.11713 66.231 3.75462 66.379 4.39147C66.6263 5.22472 66.725 6.10691 66.8237 6.9891C67.8117 5.46943 69.1957 4.19508 70.7271 3.26395C71.9131 2.52858 73.2472 1.89173 74.6306 1.74428C77.7933 1.35212 80.9554 2.82286 82.6847 5.42049C84.0681 7.47914 84.7108 9.97889 85.0075 12.3808C85.4028 15.3705 85.4028 18.4588 85.4521 21.4976C85.4521 25.5659 85.2548 29.7322 84.2661 33.7027C83.9694 34.9281 83.5248 36.2024 82.5861 36.9867C81.9434 37.5257 81.0047 37.771 80.1647 37.82C78.8306 37.8689 75.9153 37.6242 75.0752 36.5946C74.1365 35.3691 74.8779 31.0065 75.0259 29.4385C75.4706 25.1744 75.7179 20.9096 75.8166 16.6455C75.8659 15.1748 75.8659 13.7047 75.5693 12.2339C75.4212 11.3517 75.1739 10.3717 74.5812 9.6363C73.4445 8.11663 71.2211 8.94987 70.1338 10.4696C69.1458 11.8907 68.6018 13.6557 68.4044 15.3222C68.1078 17.283 68.1571 19.2927 68.2071 21.2529C68.2071 23.949 68.3551 26.6445 68.4044 29.2911C68.4044 31.0555 68.4538 32.8205 68.2071 34.5359C68.1084 35.2223 67.9104 35.9571 67.5151 36.5456C67.021 37.232 66.181 37.6731 65.3903 37.82C63.6116 38.1632 59.8069 38.1142 58.6209 36.7909V36.7903Z" fill="#113872"/>
<path d="M93.0123 22.2325C91.7276 21.4971 90.5416 20.4192 89.7509 19.1448C88.8122 17.6741 88.2683 15.9097 88.0216 14.1453C87.6262 11.3024 87.9722 8.31259 88.5649 5.46963C88.8122 3.94995 89.6523 2.28345 91.0356 1.64659C92.617 0.960166 96.7678 1.00911 98.2992 1.84236C98.6452 2.03875 98.9912 2.28345 99.1885 2.62666C99.2872 2.872 99.3365 3.16564 99.3365 3.45991C99.3365 4.53849 98.8918 5.51857 98.5952 6.54758C98.2985 7.77298 98.0518 8.94944 98.0518 10.1748C98.1012 11.057 98.1998 11.9882 98.6945 12.7235C99.7319 14.3411 102.153 14.4879 102.993 12.7725C103.438 11.9882 103.29 11.0081 103.141 10.1259C102.944 8.41047 102.647 6.74397 102.598 5.02853C102.598 4.29316 102.499 3.45991 102.944 2.82306C104.179 1.15656 107.737 0.960793 109.713 1.64659C110.652 1.94086 111.641 2.38196 112.135 3.16627C112.925 4.39167 113.222 5.91135 113.419 7.33251C113.667 9.34223 113.568 11.3519 113.37 13.3616C113.222 14.636 113.024 15.9593 112.678 17.1847C112.283 18.6058 111.492 19.9298 110.455 20.9588C108.527 22.7721 105.711 23.7528 103.092 24.0464C99.6825 24.4386 95.9764 23.8996 93.0117 22.2331L93.0123 22.2325ZM108.281 37.5252C106.009 37.231 103.735 37.0842 101.463 37.182C98.8931 37.3289 96.3237 37.721 93.7543 37.5252C92.7169 37.4763 91.6296 37.4274 90.6909 36.9373C90.0982 36.5941 89.5542 35.9573 89.4062 35.2708C89.1095 33.8497 89.1095 30.4671 90.0489 29.3891C90.5429 28.8012 91.2842 28.507 92.0256 28.4091C92.1736 28.3601 92.8656 28.1148 92.9643 28.1148C96.2257 27.4284 99.5364 27.3305 102.847 27.3305C105.12 27.2816 107.492 27.4284 109.617 28.1148C110.457 28.3601 111.297 28.7523 111.889 29.3891C112.482 29.9771 112.779 30.8103 112.927 31.6436C113.124 32.869 113.174 34.1433 112.877 35.3687C112.779 35.9566 112.482 36.5941 111.988 37.0352C111.049 37.8195 109.517 37.7216 108.282 37.5252H108.281Z" fill="#113872"/>
<path d="M126.02 25.1735C123.154 24.7324 120.09 23.4581 118.311 21.203C116.285 18.6543 115.544 15.0271 115.84 11.7919C116.038 9.73329 116.73 7.62569 117.965 5.91025C118.756 4.73379 119.793 3.75372 120.979 3.01835C124.24 0.9597 128.787 0.273274 132.542 1.35185C134.617 1.98934 136.594 3.50839 137.533 5.42022C138.571 7.57675 138.471 11.5472 136.791 13.2627C136.05 13.9491 135.062 14.4391 134.123 14.6838C131.751 15.2718 129.281 14.9781 126.86 14.9781C126.02 14.9781 124.932 15.0271 124.34 15.6156C123.994 16.0078 123.994 16.4488 124.241 16.8899C125.476 18.8507 129.034 18.9975 131.209 18.2622C132.493 17.7721 133.778 17.2325 135.161 17.0857C135.804 17.0368 136.495 17.1836 136.989 17.6247C138.62 19.2912 138.768 21.9873 136.792 23.2121C133.679 25.0744 129.627 25.7608 126.02 25.1729V25.1735ZM134.766 37.4765C133.037 37.2807 131.357 37.1333 129.627 37.1822C126.316 37.2311 122.907 37.8686 119.596 37.4765C118.855 37.3786 118.015 37.2311 117.373 36.79C116.83 36.3979 116.484 35.9568 116.335 35.3193C116.088 34.3392 116.088 33.2607 116.138 32.2316C116.187 31.3005 116.335 30.3694 116.879 29.634C117.324 28.9965 118.164 28.6539 118.954 28.5554C119.053 28.5065 119.745 28.3101 119.844 28.2612C121.87 27.8201 123.945 27.6732 126.02 27.5747C129.628 27.4769 137.336 26.9868 139.214 30.0255C139.708 30.8098 139.906 31.7899 139.955 32.7217C140.054 34.0939 140.054 35.6625 139.214 36.7411C138.819 37.2311 138.127 37.5254 137.485 37.6233C136.595 37.7212 135.657 37.6233 134.767 37.4765H134.766ZM127.947 10.8119C129.133 10.8119 130.319 10.5665 131.307 10.0765C132.048 9.73329 132.74 8.80216 132.542 8.01785C132.394 7.42993 131.702 6.98884 131.109 6.69456C129.775 6.15559 128.095 6.05708 126.81 6.69456C125.92 7.13566 124.932 8.26318 125.13 9.24325C125.377 10.2233 126.908 10.8119 127.947 10.8119Z" fill="#113872"/>
</svg>
