<svg width="126" height="35" viewBox="0 0 126 35" fill="none" xmlns="http://www.w3.org/2000/svg">
<path fill-rule="evenodd" clip-rule="evenodd" d="M18.5101 22.4834C18.5101 18.3652 15.1226 14.9759 11.0043 14.9759H5.00176V34.9999H0V9.96924H11.004C17.8849 9.96924 23.5112 15.6035 23.5112 22.4834V34.9999H18.5098V22.4834H18.5101Z" fill="#14ABE0"/>
<path fill-rule="evenodd" clip-rule="evenodd" d="M38.5209 29.9933H43.5272V34.9999H38.5209C31.6424 34.9999 26.0137 29.3681 26.0137 22.4858V9.96924H38.5233C45.4018 9.96924 51.0305 15.6011 51.0305 22.4834V34.9999H46.0291V24.4157H46.0267V22.4834C46.0267 18.3652 42.6416 14.9759 38.5233 14.9759H31.0175V22.4858C31.0175 26.6064 34.405 29.9933 38.5209 29.9933Z" fill="#14ABE0"/>
<path fill-rule="evenodd" clip-rule="evenodd" d="M53.5322 29.2449V0.241211H58.5337V9.96908H64.433V14.9757H58.5337V27.677C58.5337 29.6734 58.6124 29.9932 60.5289 29.9932H64.4333V34.9998H59.6386C58.1773 34.9998 53.5325 34.9998 53.5325 29.2449H53.5322Z" fill="#FAA21B"/>
<path fill-rule="evenodd" clip-rule="evenodd" d="M71.9384 9.96936H66.9345V34.9977H71.9384V9.96936ZM71.3602 5.73559C72.7254 4.36716 73.2249 2.39296 72.9125 0.332519C70.8511 0.019905 68.8804 0.519669 67.5124 1.88571C66.1444 3.25414 65.6452 5.22835 65.9601 7.28878C68.0194 7.6014 69.9898 7.10163 71.3602 5.73559Z" fill="#FAA21B"/>
<path fill-rule="evenodd" clip-rule="evenodd" d="M93.4769 22.4834C93.4769 26.604 90.0918 29.9933 85.9735 29.9933H79.9706V9.96924H74.9668V34.9975H85.9735C92.852 34.9975 98.4807 29.3657 98.4807 22.4834V9.96924H93.4769V22.4834Z" fill="#14ABE0"/>
<path fill-rule="evenodd" clip-rule="evenodd" d="M113.491 29.9933H126V34.9999H113.491C106.612 34.9999 100.983 29.3681 100.983 22.4858V9.96924H113.493C120.372 9.96924 126 15.6035 126 22.4834V24.9867H109.168C108.735 24.2483 108.487 23.3916 108.487 22.4858V19.9825H120.561C119.523 17.0779 116.736 14.9759 113.493 14.9759H105.985V22.4858C105.985 26.6064 109.372 29.9933 113.491 29.9933Z" fill="#14ABE0"/>
</svg>
