<svg width="198" height="63" viewBox="0 0 198 63" fill="none" xmlns="http://www.w3.org/2000/svg">
<g clip-path="url(#clip0_2010_177)">
<path d="M68.5961 16.8763C67.6775 16.3582 66.6051 16.0981 65.3779 16.0981C64.1506 16.0981 63.0782 16.3572 62.1607 16.8763C61.2421 17.3954 60.5319 18.1246 60.0277 19.0637C59.5236 20.0039 59.2715 21.105 59.2715 22.3682V27.1874C59.2715 28.4432 59.5236 29.5432 60.0277 30.4866C60.5319 31.43 61.2432 32.1613 62.1607 32.6804C63.0793 33.1995 64.1517 33.4586 65.3779 33.4586C66.6041 33.4586 67.6775 33.1995 68.5961 32.6804C69.5147 32.1623 70.225 31.4311 70.7291 30.4866C71.2333 29.5432 71.4853 28.4432 71.4853 27.1874V22.3682C71.4853 21.105 71.2333 20.0028 70.7291 19.0637C70.225 18.1235 69.5136 17.3944 68.5961 16.8763ZM68.6025 27.2706C68.6025 28.3003 68.3098 29.1265 67.7234 29.7511C67.1371 30.3747 66.3563 30.687 65.3789 30.687C64.4016 30.687 63.6304 30.3747 63.0409 29.7511C62.4502 29.1275 62.1554 28.3003 62.1554 27.2706V22.2872C62.1554 21.25 62.4502 20.4217 63.0409 19.8013C63.6304 19.1809 64.4102 18.8718 65.3789 18.8718C66.3477 18.8718 67.1371 19.182 67.7234 19.8013C68.3098 20.4217 68.6025 21.25 68.6025 22.2872V27.2706Z" fill="black"/>
<path d="M84.9489 19.8248C85.515 19.1809 86.2872 18.8601 87.2635 18.8601C87.7484 18.8601 88.1991 18.9699 88.6178 19.1873C89.0355 19.4059 89.3976 19.7161 89.702 20.1169C90.0064 20.5187 90.2296 21.0005 90.3706 21.5613H93.2545C93.0516 20.4303 92.6745 19.457 92.1234 18.6426C91.5722 17.8282 90.8822 17.2004 90.0544 16.759C89.2256 16.3188 88.2963 16.0981 87.2645 16.0981C86.0223 16.0981 84.9478 16.355 84.041 16.8699C83.1341 17.3848 82.4367 18.116 81.9485 19.0637C81.4604 20.0113 81.2158 21.1402 81.2158 22.4503V27.1182C81.2158 28.4208 81.4604 29.5475 81.9485 30.4994C82.4367 31.4513 83.1341 32.1826 84.041 32.6932C84.9478 33.2038 86.0223 33.4596 87.2645 33.4596C88.2963 33.4596 89.2234 33.239 90.048 32.7987C90.8726 32.3585 91.5605 31.7306 92.1106 30.9152C92.6617 30.1007 93.0419 29.1275 93.2534 27.9965H90.3695C90.1666 28.8621 89.7789 29.5294 89.2096 29.9974C88.6392 30.4653 87.9908 30.6988 87.2635 30.6988C86.2861 30.6988 85.515 30.379 84.9489 29.7394C84.3828 29.0998 84.0987 28.2268 84.0987 27.1192V22.4513C84.0987 21.3438 84.3817 20.4686 84.9489 19.8248Z" fill="black"/>
<path d="M100.521 18.9527H105.257V33.2836H108.045V18.9527H112.781V16.2739H100.521V18.9527Z" fill="black"/>
<path d="M129.842 16.8763C128.924 16.3582 127.851 16.0981 126.624 16.0981C125.397 16.0981 124.324 16.3572 123.407 16.8763C122.488 17.3954 121.778 18.1246 121.274 19.0637C120.77 20.0039 120.518 21.105 120.518 22.3682V27.1874C120.518 28.4432 120.77 29.5432 121.274 30.4866C121.778 31.43 122.489 32.1613 123.407 32.6804C124.325 33.1995 125.398 33.4586 126.624 33.4586C127.85 33.4586 128.924 33.1995 129.842 32.6804C130.761 32.1623 131.471 31.4311 131.975 30.4866C132.479 29.5432 132.731 28.4432 132.731 27.1874V22.3682C132.731 21.105 132.479 20.0028 131.975 19.0637C131.471 18.1235 130.76 17.3944 129.842 16.8763ZM129.849 27.2706C129.849 28.3003 129.556 29.1265 128.97 29.7511C128.383 30.3747 127.602 30.687 126.625 30.687C125.648 30.687 124.877 30.3747 124.287 29.7511C123.696 29.1275 123.401 28.3003 123.401 27.2706V22.2872C123.401 21.25 123.696 20.4217 124.287 19.8013C124.877 19.1809 125.656 18.8718 126.625 18.8718C127.594 18.8718 128.383 19.182 128.97 19.8013C129.556 20.4217 129.849 21.25 129.849 22.2872V27.2706Z" fill="black"/>
<path d="M152.284 16.9231C151.503 16.4903 150.585 16.2739 149.53 16.2739H142.813V33.2836H145.615V26.6853H149.53C150.577 26.6853 151.493 26.471 152.278 26.0414C153.063 25.6129 153.675 25.0085 154.112 24.2282C154.55 23.449 154.769 22.5365 154.769 21.4908C154.769 20.4451 154.55 19.5219 154.112 18.7417C153.674 17.9624 153.065 17.3559 152.283 16.922L152.284 16.9231ZM151.259 23.3104C150.841 23.7741 150.292 24.0065 149.612 24.0065H145.615V18.9527H149.612C150.3 18.9527 150.851 19.183 151.264 19.6424C151.679 20.1029 151.886 20.719 151.886 21.4908C151.886 22.2626 151.677 22.8456 151.259 23.3104Z" fill="#E31D1A"/>
<path d="M173.384 27.2119C173.384 28.3194 173.095 29.1775 172.517 29.7851C171.939 30.3938 171.122 30.6976 170.066 30.6976C169.011 30.6976 168.208 30.3938 167.634 29.7851C167.06 29.1764 166.772 28.3194 166.772 27.2119V16.2739H163.971V27.1298C163.971 29.1423 164.502 30.6997 165.565 31.803C166.628 32.9063 168.129 33.4585 170.066 33.4585C172.004 33.4585 173.519 32.9063 174.586 31.803C175.653 30.6997 176.186 29.1413 176.186 27.1298V16.2739H173.384V27.2119Z" fill="#E31D1A"/>
<path d="M197.526 26.0948C197.21 25.5064 196.789 25.0438 196.265 24.7091C195.742 24.3743 195.161 24.1164 194.524 23.9373C193.888 23.7582 193.249 23.6058 192.608 23.4811C191.96 23.3489 191.356 23.2082 190.798 23.06C190.239 22.9118 189.785 22.6837 189.438 22.3757C189.09 22.0676 188.917 21.6177 188.917 21.024V21.0123C188.917 20.2949 189.212 19.7395 189.802 19.3451C190.392 18.9518 191.226 18.7545 192.305 18.7545C192.953 18.7545 193.618 18.8739 194.298 19.1116C194.978 19.3494 195.646 19.7065 196.303 20.1819L197.663 17.8773C196.834 17.292 195.963 16.8497 195.049 16.5491C194.135 16.2484 193.22 16.0981 192.306 16.0981C190.345 16.0981 188.826 16.5427 187.752 17.4317C186.677 18.3207 186.14 19.5764 186.14 21.1988V21.2105C186.14 22.2168 186.31 23.0216 186.649 23.626C186.989 24.2304 187.439 24.6941 187.997 25.0182C188.556 25.3423 189.169 25.58 189.838 25.7313C190.505 25.8838 191.164 26.0106 191.813 26.1119C192.422 26.2132 192.984 26.3357 193.5 26.4807C194.016 26.6246 194.432 26.8495 194.749 27.1533C195.066 27.4571 195.223 27.8942 195.223 28.4634V28.4751C195.223 29.216 194.908 29.7895 194.28 30.1946C193.651 30.6007 192.765 30.8032 191.625 30.8032C190.71 30.8032 189.845 30.6615 189.028 30.3758C188.211 30.0912 187.475 29.6722 186.818 29.1179L185.329 31.3522C185.883 31.8127 186.489 32.1986 187.146 32.5098C187.803 32.8222 188.508 33.0578 189.262 33.2177C190.016 33.3775 190.803 33.4575 191.623 33.4575C193.648 33.4575 195.217 33.0183 196.33 32.141C197.444 31.2637 198 30.0219 198 28.4154V28.392C198 27.4486 197.842 26.6822 197.526 26.0938V26.0948Z" fill="#E31D1A"/>
<path d="M27.137 44.0483C26.525 42.4664 25.9674 40.877 25.4398 39.2812C25.3864 39.4102 25.3319 39.5392 25.2732 39.6661C25.2048 39.8345 25.1119 39.9933 25.0264 40.1532C24.9389 40.3131 24.8534 40.4741 24.7626 40.6308L24.4635 41.0838C24.3631 41.2341 24.2659 41.3855 24.1506 41.523C23.9252 41.8001 23.7137 42.0912 23.4627 42.3374L23.0985 42.7179L23.0131 42.8064L22.9468 42.8725L22.8133 43.0036C22.8133 43.0036 16.1857 47.8101 23.153 54.6835C28.6025 60.0592 28.7039 62.1133 28.4893 62.7529C28.8033 62.0973 29.3352 60.1274 26.855 56.7675C24.1549 53.109 21.6416 49.9356 23.3794 47.13C25.0008 47.1598 26.6329 47.0255 28.25 46.7175C27.8516 45.8306 27.481 44.9405 27.1349 44.0472L27.137 44.0483Z" fill="black"/>
<path d="M19.8712 40.3405L20.0271 40.1508L20.1051 40.0559C20.1339 40.0218 20.1425 40.0069 20.1617 39.9823L20.3657 39.7137C20.5131 39.541 20.6135 39.346 20.7353 39.1637C20.7993 39.0741 20.8431 38.975 20.8923 38.8791L21.0407 38.5934L21.0546 38.5593C20.8762 38.7085 20.6968 38.8556 20.5056 38.975C20.2856 39.1242 20.0666 39.2745 19.838 39.3886C19.6127 39.508 19.382 39.6412 19.1641 39.7286L18.834 39.8725L18.6695 39.9429L18.4965 40.0058C17.5897 40.349 16.5942 40.5729 15.5859 40.6027C15.3349 40.6198 15.0828 40.5995 14.8329 40.5921C14.7079 40.5889 14.584 40.5686 14.4601 40.5569C14.3373 40.5409 14.2123 40.5335 14.0916 40.51C13.8502 40.4663 13.6067 40.4279 13.3738 40.364C13.2574 40.3341 13.1389 40.3075 13.0246 40.2734L12.686 40.1668C11.7877 39.8736 10.9952 39.4643 10.2571 39.0528C9.52543 38.6382 8.84504 38.2086 8.18388 37.8429C7.85277 37.6585 7.52486 37.4912 7.20015 37.3537C6.87438 37.2108 6.55074 37.1021 6.2271 37.0328C6.06475 36.9912 5.90453 36.9774 5.74111 36.9539C5.5809 36.9497 5.41641 36.9315 5.25512 36.9486C5.0917 36.9486 4.93042 36.9838 4.76593 37.0072C4.68475 37.0221 4.60892 37.0477 4.52881 37.0658L4.40918 37.0968L4.375 37.1095C7.51097 41.5397 11.9532 44.6119 16.8666 46.1021C17.0866 45.261 17.3825 44.437 17.7499 43.645C18.3106 42.4554 19.0327 41.3457 19.8669 40.3394L19.8712 40.3405Z" fill="black"/>
<path d="M47.561 24.5737C47.3399 25.127 47.0707 25.6685 46.7471 26.1823C46.2237 27.0201 45.5657 27.778 44.8362 28.4294C44.1056 29.0828 43.3088 29.6339 42.4864 30.1179C42.2792 30.2351 42.0752 30.3545 41.8626 30.4696L41.1854 30.7947C40.9633 30.9099 40.7165 30.9877 40.4805 31.0815L40.1205 31.2158C39.9987 31.2563 39.8727 31.2883 39.7477 31.3245C38.7555 31.6177 37.6842 31.7754 36.6086 31.736C35.533 31.703 34.4638 31.493 33.463 31.1486C33.0154 30.9951 32.5829 30.815 32.1631 30.6157C32.3383 30.9109 32.5166 31.203 32.7025 31.4876C33.1757 32.2157 33.6787 32.9192 34.2213 33.578C34.7671 34.2314 35.3493 34.8412 35.972 35.3891C36.2807 35.6641 36.6011 35.9167 36.9322 36.1491C36.9322 36.1491 40.0628 38.8865 48.6846 38.975C57.3064 39.0635 55.7235 45.6107 55.7235 45.6107C55.7235 45.6107 57.4015 43.9105 55.5868 40.4226C53.772 36.9347 48.8075 36.9347 45.9172 36.7279C45.1641 36.6736 44.4581 36.4753 43.8269 36.2109C46.0678 32.7178 47.3506 28.6958 47.561 24.5748V24.5737Z" fill="black"/>
<path d="M9.08228 35.8763C9.8855 36.1748 10.6246 36.5021 11.3456 36.7771C12.0623 37.0479 12.7555 37.2738 13.4167 37.3794C14.7443 37.6107 15.9022 37.3527 17.0205 36.7195C17.6058 36.388 18.063 36.0288 18.3919 35.6301C18.7198 35.2282 18.9303 34.8093 19.0317 34.3264C19.068 34.1601 19.0937 33.9864 19.1086 33.8073C18.7978 34.1623 18.4325 34.4831 18.0448 34.7613C17.8301 34.9021 17.6165 35.0438 17.389 35.1536C17.2768 35.209 17.1647 35.2719 17.0504 35.3178L16.7075 35.4553C16.5932 35.5033 16.4789 35.5342 16.3647 35.5683C16.2504 35.6013 16.1361 35.6354 16.0218 35.6653L15.6832 35.7335C15.5689 35.7548 15.4642 35.7783 15.3339 35.79C15.0829 35.8145 14.8415 35.8497 14.5798 35.839C14.4517 35.838 14.3235 35.8348 14.1964 35.8294C14.0682 35.8156 13.939 35.7996 13.8108 35.7815C13.5534 35.7538 13.3088 35.6781 13.0631 35.6141C12.9424 35.5779 12.8281 35.531 12.7117 35.4883C12.5964 35.4436 12.4789 35.4009 12.3753 35.3455L12.058 35.1845C11.9523 35.1302 11.8626 35.0673 11.7654 35.0086C11.5678 34.8903 11.4011 34.7603 11.2302 34.6313C11.0615 34.5012 10.9152 34.3659 10.7624 34.2326C10.6257 34.0962 10.4772 33.9608 10.3533 33.8243C10.2262 33.6879 10.0981 33.5504 9.98483 33.414L9.81073 33.2093L9.64838 33.0057C9.21793 32.4642 8.84516 31.9333 8.48307 31.4355C8.12205 30.9388 7.77171 30.4708 7.40855 30.0679C7.04646 29.6596 6.67262 29.343 6.2849 29.1309C6.23683 29.0978 6.18663 29.0861 6.13856 29.0616C6.08943 29.0424 6.0403 29.0115 5.98903 28.9987C5.88756 28.9699 5.78609 28.9273 5.67928 28.9156C5.62587 28.907 5.57247 28.891 5.51799 28.8868L5.3503 28.8772L5.26485 28.8708L5.17726 28.8772L4.99996 28.8878C4.87819 28.8996 4.74682 28.9283 4.61971 28.9486L4.43706 28.9966L4.34414 29.02L4.25762 29.0509L4.08352 29.1128L3.92223 29.1906C3.86456 29.214 3.81756 29.246 3.76843 29.2769C3.72036 29.3089 3.66375 29.3345 3.62316 29.3729C3.24826 29.6393 2.99939 30.0444 2.9385 30.5358C2.87549 31.0251 3.02395 31.5762 3.34011 32.0271C3.49713 32.2542 3.6958 32.4588 3.92758 32.6273C4.16149 32.7914 4.42745 32.9172 4.7137 32.9982C5.28728 33.1666 5.92921 33.1144 6.53483 32.9343C5.97621 33.2231 5.3268 33.415 4.65175 33.3532C4.31637 33.3244 3.97884 33.2402 3.66055 33.0974C3.34545 32.9503 3.05066 32.7488 2.79431 32.4993C2.28268 32.0037 1.91739 31.3161 1.85544 30.5412C1.8234 30.1563 1.87039 29.7523 2.00284 29.3697C2.13528 28.988 2.34891 28.6256 2.62341 28.3314C2.6875 28.2504 2.76333 28.1886 2.83597 28.1182C2.9086 28.0489 2.9823 27.9796 3.06241 27.9231L3.29953 27.7451L3.54733 27.5937L3.67336 27.5191L3.80154 27.4562L4.06002 27.3315C4.23519 27.2633 4.40395 27.1919 4.5898 27.1343L4.87713 27.0565L5.02239 27.0192L5.17299 26.9957L5.4774 26.952C5.57994 26.9414 5.68462 26.9424 5.78929 26.9392C5.99971 26.9264 6.20692 26.9542 6.41734 26.9744C6.52308 26.9829 6.62242 27.0117 6.72603 27.0309C6.8275 27.0544 6.93431 27.0704 7.03044 27.1045C7.82618 27.339 8.51084 27.7494 9.08441 28.1843C9.6644 28.6203 10.1685 29.084 10.6449 29.5295C11.1202 29.9762 11.5667 30.4047 12.0046 30.7778C12.4394 31.1477 12.8709 31.4707 13.2533 31.6519C13.3483 31.6935 13.4412 31.7425 13.5267 31.7649C13.5694 31.7777 13.6132 31.8001 13.6538 31.8065C13.6944 31.8139 13.7339 31.8225 13.7724 31.832C13.8119 31.8448 13.8471 31.8427 13.8824 31.8459C13.9176 31.847 13.9518 31.8566 13.9849 31.8555C14.0501 31.8438 14.1109 31.8587 14.1708 31.8374C14.2007 31.831 14.2295 31.8278 14.2573 31.8246C14.2872 31.8129 14.3171 31.8033 14.3459 31.7947C14.4015 31.7873 14.4688 31.7457 14.5296 31.7265C14.5563 31.7201 14.6023 31.6945 14.6407 31.6775L14.7604 31.6242L14.8629 31.5613C14.896 31.541 14.9334 31.525 14.959 31.4995C14.9879 31.4771 15.0156 31.4547 15.0445 31.4355C15.0744 31.4163 15.0925 31.3875 15.1182 31.3662C15.1694 31.3257 15.2036 31.2703 15.2453 31.2276C15.3147 31.1253 15.3799 31.0315 15.4301 30.9079C15.5337 30.6723 15.6148 30.3599 15.6533 29.9762C15.6928 29.5946 15.6853 29.1511 15.6351 28.6928C15.6106 28.4636 15.5732 28.2291 15.5273 27.9988C15.5027 27.8848 15.4792 27.7696 15.4504 27.6609C15.4365 27.6055 15.4215 27.5532 15.4076 27.5042C15.4002 27.4818 15.3927 27.4541 15.3863 27.436C15.3831 27.4285 15.3809 27.42 15.3777 27.4136H15.3713L15.3702 27.4008C15.3702 27.3955 15.3713 27.4008 15.3713 27.4008L15.3756 27.4083C15.3756 27.4083 15.3767 27.4115 15.3777 27.4136L15.4472 27.3997C15.0509 26.8167 14.5649 26.3242 13.9603 26.0054C12.2567 25.1068 12.935 23.284 12.935 23.284L12.5387 24.2658C12.5387 24.2658 5.53508 17.1653 10.1034 8.64929C12.4725 4.23511 16.1211 1.40815 19.647 0C16.981 0.47116 14.3502 1.40708 11.8711 2.83975C0.587592 9.36136 -3.31742 23.7157 3.05813 35.0246C-0.156881 36.6289 2.33502 41.6827 2.33502 41.6827C0.152871 33.8691 7.82725 35.4745 7.82725 35.4745C8.26624 35.5864 8.68281 35.7271 9.08228 35.8763Z" fill="black"/>
<path d="M39.0129 40.3781C38.8944 40.3653 38.7534 40.3322 38.6209 40.3066L38.2183 40.2235C37.9459 40.1755 37.6885 40.0892 37.4257 40.0135L37.0326 39.8952L36.6524 39.7502C35.6356 39.3665 34.6743 38.8601 33.7995 38.2664C32.9194 37.6758 32.1055 37.0139 31.345 36.3103C30.5898 35.6025 29.8913 34.8521 29.2322 34.076C28.9983 33.801 28.7719 33.5217 28.5508 33.2393C28.7665 34.4886 28.993 35.7347 29.2365 36.9744C29.4063 37.8411 29.5847 38.7056 29.7727 39.5658C29.7727 39.5658 29.7738 39.569 29.7759 39.5765C30.0226 40.7043 30.2854 41.8257 30.5727 42.9353C30.8259 43.915 31.1046 44.8807 31.4101 45.8263C31.4155 45.8433 31.4219 45.8604 31.4272 45.8774C32.4889 49.9441 33.7343 54.741 34.0911 56.2365C34.7469 58.9867 38.6583 59.4899 38.6583 59.4899C38.6583 59.4899 35.8919 58.1681 35.1378 54.7975C34.6091 52.4363 33.9629 47.664 33.6222 45.015C34.3325 44.6931 35.0331 44.3339 35.7231 43.9352C37.4033 42.9641 38.9179 41.8182 40.2616 40.5358C40.0917 40.5177 39.9219 40.5007 39.7531 40.4804L39.0151 40.3781H39.0129Z" fill="black"/>
<path d="M28.4889 62.7539C28.4099 62.9191 28.3447 63.0001 28.3447 63.0001C28.3447 63.0001 28.4291 62.9319 28.4889 62.7539Z" fill="black"/>
<path d="M51.6806 3.61241C49.2047 1.59559 45.7879 0.735347 44.3 4.12407C43.6335 5.64202 43.5224 7.88269 43.4829 10.0541C39.9795 4.89157 34.7318 1.50072 28.9929 0.217285C32.5593 2.77242 35.0448 8.64806 29.654 13.8447L27.9023 14.8573C27.9023 14.8573 29.654 13.8447 29.4639 14.5567C29.2738 15.2699 29.575 18.2589 30.14 19.3632C30.187 19.4549 30.2372 19.5519 30.2896 19.6521L30.3964 19.5721C30.3964 19.5721 30.3964 19.57 30.3953 19.5689L30.3921 19.5604C30.3921 19.5604 30.3985 19.5657 30.4017 19.5689L30.3974 19.5721C30.3974 19.5721 30.4017 19.5828 30.406 19.5913C30.4156 19.6094 30.4231 19.6254 30.4359 19.6457C30.4573 19.6841 30.4818 19.7256 30.5075 19.7672C30.5577 19.8504 30.6143 19.9367 30.6709 20.022C30.7862 20.1925 30.9091 20.361 31.0351 20.5251C31.2904 20.8492 31.5606 21.1583 31.8362 21.4184C32.1118 21.6806 32.3905 21.9024 32.6533 22.0708C32.9182 22.2381 33.1574 22.3426 33.3828 22.4055C33.6093 22.4663 33.8314 22.4876 34.1006 22.4321C34.3698 22.3767 34.6678 22.2392 34.9935 22.0132C35.6344 21.5687 36.0809 21.0592 36.3319 20.3236C36.4526 19.9548 36.522 19.5306 36.5434 19.069C36.5669 18.6085 36.5402 18.1096 36.4996 17.5894C36.459 17.0692 36.3981 16.5235 36.3682 15.9436C36.3532 15.6536 36.3468 15.3541 36.3661 15.0418C36.3821 14.7316 36.4248 14.4043 36.5199 14.076C36.5615 13.9129 36.6309 13.7466 36.7014 13.5888L36.8264 13.3543C36.8691 13.285 36.9119 13.2243 36.9546 13.1592C37.1308 12.9055 37.3316 12.6678 37.5581 12.4546C38.0088 12.0293 38.5749 11.7053 39.188 11.5933C39.7979 11.4771 40.4548 11.604 40.9301 11.9622C41.4097 12.3182 41.6735 12.8554 41.76 13.382C41.5581 12.8842 41.1928 12.4653 40.7453 12.2724C40.2978 12.0752 39.8011 12.105 39.3856 12.2873C38.9669 12.4706 38.623 12.7894 38.373 13.1678C38.247 13.3575 38.1434 13.5611 38.059 13.7743C38.0398 13.8276 38.0163 13.883 38.0003 13.9331L37.9682 14.0675C37.9543 14.1613 37.9372 14.2497 37.9372 14.351C37.9287 14.5461 37.9479 14.7571 37.9896 14.9799C38.027 15.2006 38.0846 15.433 38.153 15.6707C38.2876 16.1461 38.4606 16.645 38.6262 17.1726C38.7907 17.7003 38.9541 18.2557 39.0641 18.8601C39.1741 19.4623 39.2339 20.1147 39.1827 20.8012C39.1293 21.4866 38.9498 22.1998 38.6497 22.8575C38.3506 23.5173 37.9394 24.1121 37.4833 24.627C37.0336 25.1354 36.4654 25.6503 35.7572 26.0373C35.2937 26.2963 34.766 26.4914 34.2192 26.6107C34.5065 26.809 34.8013 26.9892 35.1035 27.1448C36.2849 27.7567 37.5741 28.021 38.9402 27.8132C39.0257 27.8014 39.1111 27.795 39.1965 27.7791L39.4529 27.7215L39.7114 27.665C39.7541 27.6554 39.7979 27.6479 39.8406 27.6351L39.9688 27.5936L40.4868 27.4315C40.6641 27.3665 40.8446 27.2908 41.0241 27.2215C41.2398 27.1331 41.4524 27.0382 41.6617 26.9401C41.6628 26.9401 49.8574 24.4554 47.2181 10.9132C44.5788 -2.62993 54.0839 5.58232 52.7509 7.71533C52.7509 7.71533 54.1565 5.63029 51.6817 3.61347L51.6806 3.61241Z" fill="black"/>
</g>
<defs>
<clipPath id="clip0_2010_177">
<rect width="198" height="63" fill="white"/>
</clipPath>
</defs>
</svg>
