<svg width="193" height="32" viewBox="0 0 193 32" fill="none" xmlns="http://www.w3.org/2000/svg">
<path d="M169.17 0H192.739V6.29542H175.978V12.59H190.905V18.6227H175.978V25.1808H193V31.4754H169.17V0Z" fill="#0054A5"/>
<path d="M147.696 6.29542H138.007V0H163.932V6.29542H154.505V31.4754H147.696V6.29542Z" fill="#0054A5"/>
<path d="M57.3496 0H80.9185V6.29542H64.1586V12.59H79.0848V18.6227H64.1586V25.1808H81.1799V31.4754H57.3496V0Z" fill="#0054A5"/>
<path d="M29.8535 0H36.6625V25.1808H52.3748V31.4754H29.8535V0Z" fill="#0054A5"/>
<path d="M0 0H23.5689V6.29542H6.80903V12.59H21.4738V18.6227H6.80903V25.1808H23.5689V31.4754H0V0Z" fill="#0054A5"/>
<path d="M113.62 5.98255L116.01 0H108.677L100.559 22.0331L92.1785 0H84.8457L97.4154 31.4754H103.438L110.634 13.4569L106.58 13.3773C106.898 13.0593 110.687 9.06976 113.619 5.98255H113.62Z" fill="#FFC10E"/>
<path d="M126.484 0.524414H120.461L118.099 6.43955L119.937 13.639L115.261 13.5474L107.892 31.9998H115.486L123.604 9.96668L131.722 31.9998H139.054L126.484 0.524414Z" fill="#FFC10E"/>
</svg>
