<svg width="46" height="45" viewBox="0 0 46 45" fill="none" xmlns="http://www.w3.org/2000/svg">
<path d="M28.2974 16.228C28.6289 15.9041 29.1669 15.9042 29.4985 16.228C29.8321 16.554 29.832 17.0856 29.4985 17.4116L17.8784 28.7681C17.7127 28.93 17.4934 29.0131 17.2778 29.0132C17.0622 29.0132 16.843 28.9301 16.6772 28.7681C16.3437 28.4421 16.3437 27.9104 16.6772 27.5845L28.2974 16.228Z" fill="#434343" stroke="#434343" stroke-width="0.3"/>
<path d="M28.5488 25.1807C29.9823 25.1808 31.1523 26.3202 31.1523 27.7295C31.1521 29.1386 29.9822 30.2772 28.5488 30.2773C27.1153 30.2773 25.9446 29.1387 25.9443 27.7295C25.9443 26.3201 27.1152 25.1807 28.5488 25.1807ZM28.5488 26.8545C28.0499 26.8545 27.6494 27.2502 27.6494 27.7295C27.6496 28.2086 28.0501 28.6045 28.5488 28.6045C29.0475 28.6043 29.447 28.2085 29.4473 27.7295C29.4473 27.2503 29.0476 26.8546 28.5488 26.8545Z" fill="#434343" stroke="#434343" stroke-width="0.3"/>
<path d="M17.5317 14.4146C18.9652 14.4147 20.1353 15.5541 20.1353 16.9634C20.135 18.3724 18.9651 19.5111 17.5317 19.5112C16.0983 19.5112 14.9275 18.3725 14.9272 16.9634C14.9272 15.554 16.0981 14.4146 17.5317 14.4146ZM17.5317 16.0884C17.0328 16.0884 16.6323 16.4841 16.6323 16.9634C16.6325 17.4425 17.033 17.8384 17.5317 17.8384C18.0304 17.8382 18.43 17.4424 18.4302 16.9634C18.4302 16.4842 18.0305 16.0885 17.5317 16.0884Z" fill="#434343" stroke="#434343" stroke-width="0.3"/>
<path d="M22.998 0.852539C23.7043 0.852539 24.2866 1.20444 24.791 1.69824C25.2934 2.19008 25.7359 2.83928 26.1611 3.46191C26.4229 3.84408 26.7107 4.26595 26.9932 4.6084C27.1342 4.77938 27.2708 4.92687 27.3994 5.03809C27.5299 5.15094 27.6409 5.21682 27.7305 5.24023L27.8145 5.25488C27.9052 5.26399 28.0165 5.25672 28.1484 5.23242C28.3225 5.20035 28.5213 5.14089 28.7363 5.06152C29.167 4.90254 29.6467 4.67193 30.1045 4.45215C30.7764 4.12925 31.4765 3.79137 32.1465 3.61426C32.8183 3.43668 33.4843 3.41415 34.0762 3.74902C34.6764 4.08879 34.9948 4.6711 35.1758 5.33691C35.3561 6.00027 35.4061 6.76982 35.4551 7.50684L35.5078 8.22949C35.5293 8.47183 35.5566 8.71113 35.5928 8.93262C35.629 9.15418 35.6737 9.35414 35.7305 9.51758C35.788 9.68321 35.8538 9.79917 35.9229 9.86719C35.9918 9.93502 36.1103 9.99908 36.2803 10.0557C36.4478 10.1114 36.6518 10.1562 36.8789 10.1914C37.3337 10.262 37.8625 10.2946 38.3408 10.3242L38.9111 10.3623C39.4823 10.4046 40.0521 10.4658 40.5605 10.5977C41.2399 10.7739 41.836 11.0834 42.1826 11.6709L42.2432 11.7812C42.5231 12.3339 42.4919 12.947 42.3213 13.5635C42.1398 14.2192 41.7932 14.905 41.4629 15.5615C41.238 16.0089 41.0023 16.4771 40.8398 16.8975C40.7587 17.1074 40.6977 17.3013 40.665 17.4707C40.6321 17.6417 40.6308 17.7759 40.6572 17.874H40.6562C40.6796 17.9597 40.7467 18.0676 40.8623 18.1953C40.9761 18.321 41.1276 18.4548 41.3027 18.5928C41.6532 18.8689 42.0846 19.1505 42.4756 19.4062L42.9561 19.7217C43.4352 20.0415 43.9029 20.3769 44.2803 20.7451C44.7849 21.2375 45.1463 21.8071 45.1465 22.501C45.1465 23.195 44.785 23.7653 44.2803 24.2578C43.9029 24.626 43.4352 24.9614 42.9561 25.2812L42.4756 25.5967C42.0833 25.8522 41.6517 26.1332 41.3018 26.4092C41.1269 26.5471 40.9758 26.6811 40.8623 26.8066C40.7474 26.9337 40.68 27.0413 40.6562 27.127L40.6572 27.1279C40.6308 27.2261 40.632 27.361 40.665 27.5322C40.6977 27.7016 40.7587 27.8955 40.8398 28.1055C41.0023 28.5259 41.238 28.994 41.4629 29.4414C41.7933 30.098 42.1398 30.7843 42.3213 31.4404C42.5033 32.0985 42.5268 32.7527 42.1826 33.332C41.8344 33.9193 41.2386 34.2289 40.5596 34.4053C40.0512 34.5372 39.4814 34.5983 38.9102 34.6406L38.3408 34.6787C37.8628 34.7083 37.3351 34.7416 36.8809 34.8125C36.6538 34.848 36.4491 34.8926 36.2812 34.9482C36.111 35.0048 35.9918 35.069 35.9219 35.1367L35.9209 35.1357C35.8515 35.2038 35.787 35.3202 35.7295 35.4854C35.6726 35.6486 35.6278 35.8479 35.5918 36.0693C35.5197 36.5128 35.4854 37.0285 35.4551 37.4961C35.4061 38.233 35.3561 39.0033 35.1758 39.667C35.0062 40.2914 34.7157 40.8423 34.1855 41.1875L34.0762 41.2539C33.4844 41.5887 32.8184 41.5669 32.1465 41.3896C31.4765 41.2129 30.7765 40.8753 30.1045 40.5508C29.6468 40.331 29.167 40.1004 28.7363 39.9414C28.5213 39.862 28.3225 39.8016 28.1484 39.7695C28.0166 39.7452 27.9051 39.7389 27.8145 39.748L27.7305 39.7617C27.6409 39.7851 27.53 39.8519 27.3994 39.9648C27.2708 40.0761 27.1342 40.2235 26.9932 40.3945C26.7107 40.737 26.4229 41.1589 26.1611 41.541L26.1602 41.54C25.7348 42.1627 25.2935 42.8128 24.791 43.3047C24.2866 43.7985 23.7043 44.1494 22.998 44.1494C22.292 44.1493 21.7104 43.7983 21.2061 43.3047C20.7035 42.8128 20.2613 42.1628 19.8359 41.54C19.5743 41.158 19.2863 40.7368 19.0039 40.3945C18.8629 40.2236 18.7262 40.0761 18.5977 39.9648C18.467 39.8518 18.3552 39.785 18.2656 39.7617V39.7607C18.1641 39.7347 18.025 39.7372 17.8496 39.7695C17.6757 39.8016 17.477 39.862 17.2617 39.9414C16.8307 40.1004 16.3502 40.331 15.8926 40.5508C15.2205 40.8738 14.5206 41.211 13.8506 41.3877C13.1788 41.5649 12.5127 41.587 11.9209 41.2539C11.3208 40.9142 11.0023 40.3317 10.8213 39.666C10.641 39.0027 10.591 38.2331 10.542 37.4961C10.5117 37.0287 10.4768 36.5128 10.4043 36.0693C10.3681 35.8479 10.3233 35.6487 10.2666 35.4854C10.2235 35.3612 10.1751 35.2654 10.125 35.1963L10.0742 35.1357C10.0043 35.0676 9.88479 35.0038 9.71484 34.9473C9.54711 34.8915 9.34312 34.8468 9.11621 34.8115C8.66196 34.741 8.13449 34.7083 7.65625 34.6787C6.90189 34.6308 6.1146 34.5812 5.43652 34.4053C4.75717 34.229 4.16117 33.9194 3.81445 33.332C3.47039 32.7512 3.49307 32.0965 3.6748 31.4385C3.85599 30.7827 4.2022 30.098 4.53418 29.4414C4.75909 28.994 4.99474 28.5259 5.15723 28.1055C5.23838 27.8955 5.29936 27.7016 5.33203 27.5322C5.36498 27.3613 5.36619 27.227 5.33984 27.1289L5.31445 27.0605C5.28042 26.9879 5.22078 26.9027 5.13379 26.8066C5.02003 26.6811 4.86926 26.547 4.69434 26.4092C4.34396 26.1331 3.91233 25.8524 3.52148 25.5967C2.88436 25.1811 2.22003 24.7488 1.7168 24.2578C1.21203 23.7653 0.849609 23.195 0.849609 22.501C0.849749 21.8071 1.21212 21.2375 1.7168 20.7451C2.22004 20.2541 2.88432 19.8219 3.52148 19.4062L4.12305 19.0078C4.32371 18.871 4.51904 18.7309 4.69434 18.5928C4.86937 18.4548 5.02003 18.3209 5.13379 18.1953C5.24957 18.0675 5.31645 17.9598 5.33984 17.874L5.35449 17.7939C5.36361 17.7073 5.35678 17.5999 5.33203 17.4717C5.29935 17.3024 5.23839 17.1086 5.15723 16.8984C4.99475 16.4777 4.75903 16.0088 4.53418 15.5615L4.28613 15.0645C4.04084 14.5638 3.81195 14.0547 3.67578 13.5625C3.49376 12.9044 3.47021 12.2503 3.81445 11.6709L3.88281 11.5645C4.23766 11.0457 4.80074 10.763 5.4375 10.5977C6.1152 10.4217 6.90187 10.3721 7.65625 10.3242L8.39551 10.2725C8.64383 10.2514 8.88917 10.2249 9.11621 10.1895C9.34301 10.154 9.54706 10.1103 9.71484 10.0547C9.8853 9.99814 10.0053 9.93397 10.0752 9.86621C10.1444 9.79914 10.2099 9.68398 10.2676 9.51855C10.3244 9.35545 10.3692 9.15624 10.4053 8.93457C10.4774 8.49069 10.5117 7.97443 10.542 7.50684L10.5811 6.9502C10.6244 6.39155 10.6861 5.83377 10.8213 5.33594C11.0023 4.6698 11.3204 4.08729 11.9209 3.74902C12.5127 3.41427 13.1787 3.43605 13.8506 3.61328C14.5206 3.79004 15.2205 4.12763 15.8926 4.45215C16.3505 4.67202 16.8301 4.90313 17.2607 5.0625C17.4758 5.14207 17.6747 5.20246 17.8486 5.23438C18.0243 5.26656 18.1634 5.26811 18.2656 5.24121V5.24023C18.3552 5.21692 18.467 5.15113 18.5977 5.03809C18.7262 4.92686 18.8629 4.77936 19.0039 4.6084C19.2864 4.26595 19.5742 3.84408 19.8359 3.46191L20.1592 2.99316C20.4865 2.52482 20.8292 2.06712 21.2061 1.69824C21.7104 1.20454 22.2919 0.852661 22.998 0.852539ZM22.998 2.5166C22.9065 2.51672 22.7884 2.56281 22.6436 2.66895C22.5011 2.77345 22.3476 2.92464 22.1885 3.1084C21.8699 3.47634 21.5452 3.95225 21.25 4.38574C20.8764 4.93489 20.5049 5.48069 20.0996 5.9209C19.6937 6.3617 19.2425 6.71081 18.7041 6.85156C18.1451 6.9969 17.5467 6.9077 16.9492 6.71875C16.3516 6.52974 15.7363 6.23487 15.1426 5.9502C14.6782 5.7272 14.1669 5.48116 13.7178 5.32129C13.4934 5.24143 13.291 5.18538 13.1221 5.16309C12.949 5.14026 12.8338 5.15495 12.7666 5.19238L12.7676 5.19336C12.6963 5.23384 12.6224 5.32533 12.5547 5.48438C12.4883 5.64024 12.4355 5.84168 12.3936 6.07422C12.3096 6.53978 12.2728 7.10166 12.2393 7.61328C12.195 8.27978 12.1518 8.94376 12.0234 9.53223C11.8948 10.1216 11.6773 10.6539 11.2725 11.0479L11.2715 11.0469C10.8689 11.44 10.327 11.6526 9.72559 11.7783C9.12427 11.904 8.44602 11.9469 7.76367 11.9902C7.24043 12.023 6.66462 12.06 6.1875 12.1426C5.9492 12.1838 5.74237 12.2357 5.58203 12.3008C5.45896 12.3507 5.37545 12.4039 5.32422 12.4561L5.2832 12.5078C5.24567 12.5714 5.22914 12.6808 5.25195 12.8486C5.27427 13.0126 5.33049 13.2097 5.41211 13.4287C5.49384 13.648 5.59782 13.8827 5.70996 14.1191L6.05762 14.8203L6.27637 15.2578C6.49367 15.6984 6.70115 16.1461 6.84668 16.585C7.04067 17.17 7.1317 17.7584 6.98047 18.3076C6.8358 18.8372 6.47789 19.279 6.02734 19.6748C5.57709 20.0703 5.0187 20.432 4.45703 20.7969L4.45801 20.7979C4.01575 21.0865 3.52757 21.4033 3.15039 21.7148C2.9619 21.8706 2.80722 22.021 2.7002 22.1602C2.59125 22.3019 2.54506 22.4149 2.54492 22.501C2.54492 22.5872 2.59053 22.701 2.69922 22.8428C2.80603 22.982 2.96108 23.1324 3.14941 23.2881C3.52603 23.5995 4.01345 23.9166 4.45703 24.2051C5.01904 24.5702 5.57699 24.934 6.02734 25.3301C6.47786 25.7263 6.83583 26.1672 6.98047 26.6953V26.6963C7.12973 27.2451 7.03823 27.8316 6.84473 28.416C6.65112 29.0007 6.34884 29.6026 6.05762 30.1826C5.82947 30.6363 5.57846 31.1353 5.41504 31.5732C5.33332 31.7923 5.27561 31.9896 5.25293 32.1533C5.22972 32.321 5.24648 32.4296 5.2832 32.4922L5.32422 32.5439C5.37544 32.5966 5.45881 32.6501 5.58203 32.7002C5.74231 32.7654 5.94911 32.8173 6.1875 32.8584C6.66461 32.9406 7.24024 32.976 7.76367 33.0088C8.44585 33.0521 9.12428 33.0954 9.72559 33.2207C10.327 33.3461 10.8698 33.5573 11.2725 33.9521C11.6755 34.346 11.8935 34.8784 12.0225 35.4678C12.1512 36.0561 12.195 36.7193 12.2393 37.3857C12.2728 37.8972 12.3111 38.4592 12.3955 38.9248C12.4377 39.1576 12.4903 39.3596 12.5566 39.5156C12.6244 39.6749 12.6979 39.7663 12.7686 39.8066H12.7676C12.8347 39.8446 12.9491 39.8603 13.1221 39.8379C13.2909 39.816 13.4934 39.7605 13.7178 39.6807C14.1668 39.5208 14.6784 39.2743 15.1426 39.0498H15.1436C15.6345 38.8146 16.1397 38.5714 16.6367 38.3877C17.1338 38.2039 17.6334 38.0752 18.1133 38.0752C18.3154 38.0752 18.5126 38.0983 18.7041 38.1484C19.2439 38.2892 19.6951 38.6374 20.1006 39.0781C20.5055 39.5183 20.8765 40.0643 21.25 40.6133L21.7109 41.2754C21.8688 41.4943 22.0292 41.7055 22.1885 41.8896C22.3478 42.0738 22.5019 42.2263 22.6445 42.3311C22.7892 42.4372 22.9067 42.4833 22.998 42.4834C23.0896 42.4834 23.2076 42.4372 23.3525 42.3311C23.495 42.2266 23.6485 42.0754 23.8076 41.8916C24.1262 41.5236 24.4509 41.0468 24.7461 40.6133C25.1197 40.064 25.4921 39.5184 25.8975 39.0781C26.3033 38.6374 26.7547 38.2892 27.293 38.1484C27.8519 38.0031 28.4503 38.0913 29.0479 38.2803C29.6454 38.4693 30.2599 38.7652 30.8535 39.0498C31.318 39.2728 31.8292 39.5194 32.2783 39.6797C32.5029 39.7598 32.7061 39.8157 32.875 39.8379C33.048 39.8606 33.1625 39.8446 33.2295 39.8066C33.3007 39.7662 33.3737 39.6745 33.4414 39.5156C33.5078 39.3597 33.5605 39.1576 33.6025 38.9248C33.6865 38.4592 33.7243 37.8973 33.7578 37.3857L33.792 36.8877C33.8289 36.3924 33.8774 35.909 33.9736 35.4678C34.1022 34.8784 34.3189 34.3461 34.7236 33.9521C35.1263 33.5586 35.6697 33.3475 36.2715 33.2217C36.8728 33.096 37.5511 33.0521 38.2334 33.0088C38.7564 32.9761 39.3316 32.94 39.8086 32.8574C40.0471 32.8161 40.2546 32.7643 40.415 32.6992C40.5792 32.6326 40.673 32.5604 40.7139 32.4922L40.7373 32.4355C40.7569 32.3702 40.7622 32.2773 40.7451 32.1514C40.7228 31.9874 40.6657 31.7903 40.584 31.5713C40.5024 31.3525 40.3991 31.1185 40.2871 30.8828L39.9395 30.1826C39.6483 29.6042 39.3444 29.003 39.1504 28.418C38.9564 27.833 38.8654 27.2445 39.0166 26.6953C39.1612 26.1657 39.5182 25.724 39.9688 25.3281C40.419 24.9325 40.9773 24.5701 41.5391 24.2051C41.9812 23.9165 42.4686 23.5995 42.8457 23.2881C43.0343 23.1323 43.1898 22.982 43.2969 22.8428C43.406 22.7009 43.4512 22.5871 43.4512 22.501C43.451 22.4147 43.4056 22.3009 43.2969 22.1592C43.1901 22.0201 43.0348 21.8704 42.8467 21.7148C42.47 21.4035 41.9826 21.0863 41.5391 20.7979C40.9771 20.4328 40.4191 20.0689 39.9688 19.6729C39.5184 19.2768 39.1612 18.8355 39.0166 18.3076V18.3066C38.8673 17.7579 38.9579 17.1713 39.1514 16.5869C39.345 16.0022 39.6482 15.4004 39.9395 14.8203C40.1677 14.3664 40.4186 13.8671 40.582 13.4287C40.6638 13.2095 40.7205 13.0118 40.7432 12.8477C40.7664 12.6794 40.7501 12.5703 40.7129 12.5068V12.5059C40.6715 12.4374 40.5779 12.3661 40.415 12.2998C40.2547 12.2346 40.0472 12.1827 39.8086 12.1416C39.3316 12.0595 38.7566 12.023 38.2334 11.9902C37.5512 11.9469 36.8728 11.9046 36.2715 11.7793C35.6696 11.6539 35.1264 11.4421 34.7236 11.0469C34.3208 10.653 34.1036 10.1214 33.9746 9.53223C33.8458 8.94376 33.8021 8.27996 33.7578 7.61328C33.7243 7.10187 33.686 6.53978 33.6016 6.07422C33.5594 5.84173 33.5067 5.6403 33.4404 5.48438C33.3727 5.32503 33.2992 5.23371 33.2285 5.19336V5.19238C33.1613 5.15476 33.0471 5.13885 32.875 5.16113C32.7061 5.18305 32.5028 5.23941 32.2783 5.31934C31.8296 5.47913 31.3185 5.72484 30.8545 5.94922L30.8535 5.9502C30.2616 6.23479 29.6467 6.53037 29.0488 6.71973C28.4511 6.90902 27.852 6.99845 27.293 6.85156C26.753 6.71084 26.302 6.36175 25.8965 5.9209C25.4915 5.48065 25.1196 4.93485 24.7461 4.38574V4.38477C24.451 3.95292 24.126 3.47746 23.8076 3.10938C23.6484 2.92534 23.4951 2.77365 23.3525 2.66895C23.2075 2.56247 23.0895 2.5166 22.998 2.5166Z" fill="#434343" stroke="#434343" stroke-width="0.3"/>
</svg>
