<svg width="54" height="46" viewBox="0 0 54 46" fill="none" xmlns="http://www.w3.org/2000/svg">
<path d="M6.06348 19.8047C6.59733 19.8565 6.99978 20.3005 7.00098 20.8203L6.99609 20.9258C6.92415 21.6156 6.88574 22.3209 6.88574 23.0215C6.886 34.1169 16.155 43.1532 27.5576 43.1533C33.2057 43.1533 38.4805 40.9769 42.4072 37.0264C42.8084 36.6218 43.4672 36.6121 43.8789 37.0029L43.9531 37.0791C44.2974 37.4762 44.2816 38.0712 43.9023 38.4502L43.9033 38.4512C39.6882 42.6891 34.0715 45.0692 28.043 45.1904L28.0537 45.2002H27.5615C15.015 45.2001 4.80006 35.2565 4.7998 23.0215C4.7998 22.2545 4.84283 21.4763 4.91992 20.7178C4.9776 20.1512 5.49783 19.75 6.06348 19.8047Z" fill="#434343" stroke="#434343" stroke-width="0.4"/>
<path d="M27.5918 0.799805C39.2807 0.799939 49.0005 9.50973 50.1943 21.0576H50.1953C50.252 21.6261 49.8361 22.1388 49.2637 22.1953L49.2539 22.1963H49.2441C49.2365 22.1963 49.228 22.1963 49.2129 22.1973C49.1994 22.1982 49.1789 22.2002 49.1562 22.2002C48.629 22.2002 48.174 21.8028 48.1211 21.2695L48.0645 20.7793C46.7599 10.5396 38.0492 2.87318 27.5918 2.87305C22.3672 2.87305 17.3811 4.82064 13.5518 8.35352L13.5508 8.35254C13.1303 8.74187 12.4709 8.71894 12.0791 8.29688C11.6866 7.87788 11.7104 7.21912 12.1357 6.8291C16.3483 2.94353 21.8397 0.799805 27.5918 0.799805Z" fill="#434343" stroke="#434343" stroke-width="0.4"/>
<path d="M4.74512 18.0918C5.163 17.7032 5.837 17.7032 6.25488 18.0918L9.87988 21.4629C10.3061 21.8592 10.3061 22.5099 9.87988 22.9062C9.66993 23.1015 9.39428 23.2002 9.125 23.2002C8.85582 23.2001 8.57997 23.1014 8.37012 22.9062L5.5 20.2363L2.62988 22.9062C2.21201 23.2949 1.53801 23.2948 1.12012 22.9062C0.69393 22.5099 0.69393 21.8592 1.12012 21.4629L4.74512 18.0918Z" fill="#434343" stroke="#434343" stroke-width="0.4"/>
<path d="M51.3701 18.0918C51.788 17.7032 52.462 17.7033 52.8799 18.0918C53.3061 18.4881 53.3061 19.1388 52.8799 19.5352L49.2549 22.9062C49.0548 23.0924 48.7839 23.2002 48.5 23.2002C48.2182 23.2002 47.9455 23.098 47.7432 22.9053V22.9043L44.1201 19.5352C43.6939 19.1388 43.6939 18.4881 44.1201 18.0918C44.538 17.7033 45.212 17.7032 45.6299 18.0918L48.5 20.7607L51.3701 18.0918Z" fill="#434343" stroke="#434343" stroke-width="0.4"/>
<path d="M38 14.7998C38.6212 14.7998 39.2002 15.2155 39.2002 15.8105V30.1895C39.2002 30.7845 38.6212 31.2002 38 31.2002C37.3788 31.2002 36.7998 30.7845 36.7998 30.1895V15.8105C36.7998 15.2155 37.3788 14.7998 38 14.7998Z" fill="#434343" stroke="#434343" stroke-width="0.4"/>
<path d="M30.7881 14.7998C31.3426 14.7999 31.7754 15.2702 31.7754 15.8281V22.1445H37.2119C37.7664 22.1445 38.2 22.6141 38.2002 23.1719C38.2002 23.7299 37.7665 24.2002 37.2119 24.2002H37.0117V24.1963H30.7881C30.2336 24.1963 29.8 23.7267 29.7998 23.1689V15.8281C29.7998 15.2701 30.2335 14.7998 30.7881 14.7998Z" fill="#434343" stroke="#434343" stroke-width="0.4"/>
<path d="M20.2305 14.7998C23.2091 14.7999 25.6602 17.0254 25.6602 19.7979C25.6601 20.3391 25.3527 21.0007 24.8906 21.7021C24.4223 22.413 23.7717 23.1998 23.0371 23.998C21.7015 25.4495 20.0725 26.954 18.7227 28.1436H25.0967C25.689 28.1436 26.2002 28.5882 26.2002 29.1719C26.2001 29.7554 25.689 30.2002 25.0967 30.2002L25.0957 30.1963H15.9033C15.4593 30.1963 15.0462 29.9456 14.877 29.5459C14.7059 29.1418 14.8281 28.6845 15.1709 28.4023C17.1767 26.7382 19.2622 24.8356 20.8447 23.21C21.6365 22.3966 22.2995 21.6563 22.7627 21.0518C22.9944 20.7493 23.1732 20.485 23.293 20.2656C23.4165 20.0394 23.4628 19.886 23.4629 19.7979C23.4629 18.1888 22.0324 16.8525 20.2344 16.8525C18.4363 16.8526 17.0059 18.1888 17.0059 19.7979C17.0057 20.3813 16.4955 20.826 15.9033 20.8262C15.311 20.8262 14.8 20.3814 14.7998 19.7979C14.7998 17.0253 17.2518 14.7998 20.2305 14.7998Z" fill="#434343" stroke="#434343" stroke-width="0.4"/>
</svg>
