<svg width="47" height="46" viewBox="0 0 47 46" fill="none" xmlns="http://www.w3.org/2000/svg">
<path d="M10.1387 2.84961C10.6969 2.84961 11.1504 3.30308 11.1504 3.86133V10.1387C11.1504 10.6969 10.6969 11.1504 10.1387 11.1504C9.5805 11.1503 9.12793 10.6969 9.12793 10.1387V4.87207H3.86133C3.30313 4.87207 2.84969 4.4195 2.84961 3.86133C2.84961 3.30308 3.30308 2.84961 3.86133 2.84961H10.1387Z" fill="#434343" stroke="#434343" stroke-width="0.3"/>
<path d="M24.8054 21.335C25.2078 21.3351 25.5575 21.5819 25.7058 21.9453L25.7566 22.1074V22.1084L27.8093 31.5986C27.8709 31.8872 27.8006 32.1888 27.6169 32.4229L27.616 32.4238C27.4311 32.6549 27.1534 32.7891 26.8582 32.7891H3.00757C2.71231 32.7891 2.43464 32.6549 2.24976 32.4238C2.06476 32.1925 1.99528 31.8909 2.0564 31.5996V31.5986L4.10913 22.1084L4.15894 21.9463C4.30566 21.5842 4.6586 21.3351 5.0603 21.335H24.8054ZM4.2146 30.8291H25.6511L24.0203 23.2988H5.84546L4.2146 30.8291Z" fill="#434343" stroke="#434343" stroke-width="0.3"/>
<path d="M6.01099 31.4609C6.5498 31.4609 6.98462 31.9028 6.98462 32.4434V44.168C6.98462 44.7085 6.5498 45.1494 6.01099 45.1494C5.47228 45.1493 5.03735 44.7084 5.03735 44.168V32.4434C5.03735 31.9029 5.47228 31.4611 6.01099 31.4609Z" fill="#434343" stroke="#434343" stroke-width="0.3"/>
<path d="M24.4099 31.4609C24.9487 31.4609 25.3835 31.9028 25.3835 32.4434V44.168C25.3835 44.7085 24.9487 45.1494 24.4099 45.1494C23.8712 45.1493 23.4363 44.7084 23.4363 44.168V32.4434C23.4363 31.9029 23.8712 31.4611 24.4099 31.4609Z" fill="#434343" stroke="#434343" stroke-width="0.3"/>
<path d="M15.2104 36.4092C15.7493 36.4092 16.1841 36.8511 16.1841 37.3916V44.168C16.1841 44.7085 15.7493 45.1494 15.2104 45.1494C14.6717 45.1493 14.2368 44.7084 14.2368 44.168V37.3916C14.2368 36.8512 14.6717 36.4093 15.2104 36.4092Z" fill="#434343" stroke="#434343" stroke-width="0.3"/>
<path d="M27.9646 43.186C28.5034 43.186 28.9382 43.6279 28.9382 44.1685C28.938 44.7088 28.5033 45.1499 27.9646 45.1499H2.29956C1.76099 45.1498 1.32616 44.7087 1.32593 44.1685C1.32593 43.628 1.76085 43.1862 2.29956 43.186H27.9646Z" fill="#434343" stroke="#434343" stroke-width="0.3"/>
<path d="M10.8284 27.4761C11.3672 27.4761 11.802 27.918 11.802 28.4585V31.4868C11.802 32.0273 11.3672 32.4692 10.8284 32.4692C10.2897 32.4691 9.85474 32.0273 9.85474 31.4868V28.4585C9.85474 27.918 10.2897 27.4762 10.8284 27.4761Z" fill="#434343" stroke="#434343" stroke-width="0.3"/>
<path d="M19.4358 27.4761C19.9746 27.4761 20.4094 27.918 20.4094 28.4585V31.4868C20.4094 32.0273 19.9746 32.4692 19.4358 32.4692C18.8971 32.4691 18.4622 32.0273 18.4622 31.4868V28.4585C18.4622 27.918 18.8971 27.4762 19.4358 27.4761Z" fill="#434343" stroke="#434343" stroke-width="0.3"/>
<path d="M9.41992 3.14648C9.80826 2.75848 10.4468 2.74927 10.8447 3.12891C11.2439 3.50979 11.2529 4.13846 10.8623 4.5293L2.58008 12.8496L2.58105 12.8506C2.38311 13.0527 2.11713 13.1504 1.8584 13.1504C1.60791 13.1503 1.35333 13.0565 1.15723 12.874L1.15527 12.873C0.756091 12.4922 0.746148 11.8625 1.13672 11.4717L9.41992 3.14746V3.14648Z" fill="#434343" stroke="#434343" stroke-width="0.3"/>
<path d="M36.8613 35.8496C37.4001 35.8497 37.8721 36.2369 37.8721 36.7539V41.3428H43.1387C43.6773 41.3428 44.1502 41.7293 44.1504 42.2461C44.1504 42.7631 43.6775 43.1504 43.1387 43.1504H36.8613C36.3225 43.1504 35.8496 42.7631 35.8496 42.2461V36.7539C35.8496 36.2369 36.3225 35.8496 36.8613 35.8496Z" fill="#434343" stroke="#434343" stroke-width="0.3"/>
<path d="M43.5625 33.1523C43.9184 32.7571 44.5105 32.7473 44.876 33.1348C45.2118 33.491 45.2404 34.0591 44.9541 34.4492L44.8926 34.5244L37.4375 42.8457C37.2593 43.0436 37.0159 43.1504 36.7725 43.1504H36.6221V43.1309C36.4401 43.0984 36.2649 43.0091 36.125 42.8643L36.124 42.8633C35.7658 42.4834 35.7574 41.8627 36.1074 41.4736L43.5625 33.1533V33.1523Z" fill="#434343" stroke="#434343" stroke-width="0.3"/>
<path d="M38.543 0.319336C42.7369 0.319405 46.1483 3.76726 46.1484 7.99902V18.8438C46.1484 22.9571 42.9255 26.3288 38.8936 26.5146L38.9062 26.5273H32.3096C31.7708 26.5273 31.336 26.0863 31.3359 25.5459C31.3359 25.0054 31.7708 24.5645 32.3096 24.5645H38.5469C41.6669 24.5643 44.209 21.9983 44.209 18.8438V7.99902C44.2088 4.8446 41.6668 2.27947 38.5469 2.2793H26.0684C22.9483 2.2793 20.4054 4.8445 20.4053 7.99902V14.7803C20.4052 15.3207 19.9704 15.7617 19.4316 15.7617C18.893 15.7616 18.4581 15.3206 18.458 14.7803V7.99902C18.4582 3.76722 21.8705 0.319336 26.0645 0.319336H38.543Z" fill="#434343" stroke="#434343" stroke-width="0.3"/>
<path d="M37.9912 8.05566C38.53 8.05566 38.9648 8.49756 38.9648 9.03809C38.9646 12.7429 35.9778 15.7615 32.3057 15.7617C28.6334 15.7617 25.6457 12.743 25.6455 9.03809C25.6455 8.49764 26.0804 8.05578 26.6191 8.05566C27.158 8.05566 27.5928 8.49756 27.5928 9.03809C27.593 11.6657 29.7109 13.7979 32.3057 13.7979C34.9002 13.7977 37.0173 11.6619 37.0176 9.03809C37.0176 8.4976 37.4524 8.05572 37.9912 8.05566Z" fill="#434343" stroke="#434343" stroke-width="0.3"/>
</svg>
