<svg width="138" height="137" viewBox="0 0 138 137" fill="none" xmlns="http://www.w3.org/2000/svg">
<path d="M68.5598 0L72.9638 8.38813L78.5422 0.730614L81.6779 9.67058L88.3118 2.9069L90.1125 12.2082L97.6605 6.48245L98.0877 15.9468L106.389 11.3811L105.434 20.8067L114.311 17.4984L111.993 26.6845L121.258 24.7039L117.628 33.4547L127.082 32.8442L122.216 40.9732L131.659 41.7457L125.661 49.0796L134.89 51.2188L127.889 57.6012L136.708 61.0613L128.852 66.3563L137.074 71.0638L128.531 75.1585L135.979 81.0128L126.931 83.82L133.448 90.6964L124.087 92.1562L129.533 99.9083L120.059 99.9895L124.319 108.452L114.934 107.153L117.916 116.145L108.821 113.494L110.462 122.825L101.849 118.877L102.114 128.347L94.1684 123.188L93.0515 132.596L85.9416 126.334L83.4668 135.479L77.3443 128.25L73.5644 136.937L68.5598 128.892L63.5553 136.937L59.7753 128.25L53.6528 135.479L51.178 126.334L44.0681 132.596L42.9512 123.188L35.0054 128.347L35.2702 118.877L26.6579 122.825L28.2987 113.494L19.2034 116.145L22.1853 107.153L12.8008 108.452L17.0603 99.9895L7.58668 99.9083L13.0329 92.1562L3.67208 90.6964L10.189 83.82L1.14045 81.0128L8.58912 75.1585L0.0457382 71.0638L8.26743 66.3563L0.411293 61.0613L9.23077 57.6012L2.22931 51.2188L11.4586 49.0796L5.46105 41.7457L14.9035 40.9732L10.0376 32.8442L19.4919 33.4547L15.8615 24.7039L25.1261 26.6845L22.8086 17.4984L31.6861 20.8067L30.7307 11.3811L39.0319 15.9468L39.4591 6.48245L47.0071 12.2082L48.8078 2.9069L55.4417 9.67058L58.5774 0.730614L64.1558 8.38813L68.5598 0Z" fill="#1B805C"/>
</svg>
