<svg width="27" height="33" viewBox="0 0 27 33" fill="none" xmlns="http://www.w3.org/2000/svg">
<path d="M0.811096 0.58905H11.1596V16.3051C11.6176 14.9882 12.319 13.9291 13.2637 13.1275C14.2084 12.326 15.6397 11.9252 17.5577 11.9252C21.9948 11.9252 24.2134 14.3155 24.2134 19.0962V32.0211H26.618V32.794H14.466V32.0211H16.2265V18.0656C16.2265 16.348 16.112 15.2459 15.883 14.7592C15.654 14.244 15.2389 13.9863 14.6378 13.9863C13.7217 13.9863 12.9058 14.5875 12.1902 15.7898C11.5031 16.9921 11.1596 18.4521 11.1596 20.1697V32.0211H13.006V32.794H0.811096V32.0211H3.17279V1.36197H0.811096V0.58905Z" fill="#FEBE15"/>
</svg>
