<svg width="21" height="23" viewBox="0 0 21 23" fill="none" xmlns="http://www.w3.org/2000/svg">
<path d="M12.4965 1.69812C11.2369 1.69812 10.3352 2.38516 9.79126 3.75924C9.24735 5.13332 8.9754 7.40913 8.9754 10.5867V12.8196C8.9754 15.6536 9.29029 17.6861 9.92007 18.917C10.5499 20.148 11.7092 20.7635 13.3982 20.7635C15.0872 20.7635 16.4326 20.1909 17.4346 19.0459C18.4365 17.9008 19.0806 16.5983 19.3669 15.1383L20.1398 15.2242C19.5959 17.6861 18.5939 19.4609 17.134 20.5488C15.6454 21.6652 13.5986 22.2234 10.9936 22.2234C7.67289 22.2234 5.12512 21.336 3.35027 19.5611C1.57542 17.7577 0.687988 15.1383 0.687988 11.7031C0.687988 8.23931 1.68992 5.57703 3.69379 3.7163C5.72628 1.85557 8.546 0.925201 12.153 0.925201C14.7007 0.925201 16.6473 1.42617 17.9928 2.4281C19.3382 3.40141 20.011 4.63235 20.011 6.12094C20.011 7.60952 19.6818 8.69733 19.0233 9.38437C18.3936 10.0714 17.5061 10.4149 16.3611 10.4149C15.2446 10.4149 14.3429 10.1144 13.6559 9.51319C12.9688 8.91203 12.6253 8.02461 12.6253 6.85091C12.6253 6.33563 12.6969 5.82036 12.84 5.30508H14.257C14.4574 4.73254 14.5576 4.21726 14.5576 3.75924C14.5576 2.38516 13.8706 1.69812 12.4965 1.69812Z" fill="#FEBE15"/>
</svg>
