<svg width="14" height="32" viewBox="0 0 14 32" fill="none" xmlns="http://www.w3.org/2000/svg">
<path d="M6.58326 8.39177C5.06605 8.39177 3.97824 8.00531 3.31983 7.23239C2.69004 6.45947 2.37515 5.50048 2.37515 4.35541C2.37515 3.21035 2.71867 2.26567 3.40571 1.52137C4.12138 0.777083 5.19488 0.404938 6.62621 0.404938C8.05754 0.404938 9.14534 0.748457 9.88964 1.4355C10.6339 2.09391 11.0061 3.0529 11.0061 4.31247C11.0061 5.54342 10.6482 6.53104 9.93257 7.27533C9.2169 8.01962 8.10047 8.39177 6.58326 8.39177ZM0.0993347 11.3546H10.6196V31.0211H13.0243V31.794H0.271082V31.0211H2.63279V12.1275H0.0993347V11.3546Z" fill="#FEBE15"/>
</svg>
