<svg width="26" height="22" viewBox="0 0 26 22" fill="none" xmlns="http://www.w3.org/2000/svg">
<path d="M0.0723877 1.3546H10.4209V5.30508C10.8789 3.98825 11.5803 2.92907 12.525 2.12752C13.4697 1.32597 14.901 0.925201 16.819 0.925201C21.2561 0.925201 23.4747 3.31553 23.4747 8.09617V21.0211H25.8793V21.794H13.7273V21.0211H15.4878V7.06561C15.4878 5.34802 15.3733 4.24589 15.1443 3.75924C14.9153 3.24396 14.5002 2.98632 13.899 2.98632C12.983 2.98632 12.1671 3.58748 11.4515 4.7898C10.7644 5.99212 10.4209 7.45207 10.4209 9.16967V21.0211H12.2673V21.794H0.0723877V21.0211H2.43409V2.12752H0.0723877V1.3546Z" fill="#FEBE15"/>
</svg>
