<svg width="24" height="23" viewBox="0 0 24 23" fill="none" xmlns="http://www.w3.org/2000/svg">
<path d="M10.2123 11.7031H11.4575V8.39675C11.4575 5.67722 11.3001 3.85943 10.9852 2.94338C10.6989 1.9987 10.1264 1.52636 9.2676 1.52636C8.75232 1.52636 8.27998 1.66949 7.85058 1.95576C7.44981 2.2134 7.24942 2.58555 7.24942 3.0722C7.24942 3.53023 7.3353 4.00257 7.50706 4.48922H8.58056C8.80957 5.09038 8.92408 5.82036 8.92408 6.67915C8.92408 7.50933 8.56625 8.23931 7.85058 8.86909C7.13491 9.47025 6.23317 9.77083 5.14536 9.77083C2.68347 9.77083 1.45252 8.58283 1.45252 6.20682C1.45252 2.68574 4.44401 0.925201 10.427 0.925201C13.8335 0.925201 16.1809 1.51205 17.4691 2.68574C18.786 3.8308 19.4444 5.94917 19.4444 9.04085V17.7577C19.4444 19.2462 19.8595 19.9905 20.6896 19.9905C21.6629 19.9905 22.2355 18.5163 22.4072 15.5677L23.0513 15.6107C22.9368 18.1298 22.4645 19.8617 21.6343 20.8064C20.8041 21.7511 19.4444 22.2234 17.555 22.2234C14.1198 22.2234 12.1446 21.1642 11.6293 19.0459C11.2571 20.1337 10.6989 20.9352 9.95464 21.4505C9.21034 21.9658 8.12253 22.2234 6.6912 22.2234C2.45446 22.2234 0.33609 20.4915 0.33609 17.0277C0.33609 14.9952 1.13763 13.6068 2.74072 12.8625C4.37244 12.0896 6.86296 11.7031 10.2123 11.7031ZM8.49468 16.9847C8.49468 18.4733 8.56624 19.4323 8.70937 19.8617C8.88113 20.2911 9.18172 20.5058 9.61112 20.5058C10.0691 20.5058 10.4842 20.148 10.8564 19.4323C11.2571 18.688 11.4575 17.6718 11.4575 16.3836V12.3902H11.1569C9.3821 12.3902 8.49468 13.6927 8.49468 16.2977V16.9847Z" fill="#FEBE15"/>
</svg>
