<svg width="24" height="22" viewBox="0 0 24 22" fill="none" xmlns="http://www.w3.org/2000/svg">
<path d="M10.1753 11.0454H11.4205V7.73901C11.4205 5.01948 11.2631 3.20169 10.9482 2.28563C10.6619 1.34096 10.0894 0.868616 9.23058 0.868616C8.7153 0.868616 8.24296 1.01175 7.81356 1.29802C7.41279 1.55566 7.21241 1.9278 7.21241 2.41445C7.21241 2.87248 7.29828 3.34482 7.47004 3.83147H8.54354C8.77255 4.43263 8.88706 5.16261 8.88706 6.02141C8.88706 6.85158 8.52923 7.58156 7.81356 8.21135C7.0979 8.81251 6.19616 9.11309 5.10835 9.11309C2.64646 9.11309 1.41551 7.92508 1.41551 5.54907C1.41551 2.02799 4.40699 0.267456 10.39 0.267456C13.7965 0.267456 16.1439 0.854302 17.4321 2.02799C18.7489 3.17306 19.4073 5.29143 19.4073 8.38311V17.0999C19.4073 18.5885 19.8224 19.3328 20.6526 19.3328C21.6259 19.3328 22.1984 17.8585 22.3702 14.91L23.0143 14.9529C22.8998 17.4721 22.4275 19.204 21.5973 20.1487C20.7671 21.0933 19.4073 21.5657 17.518 21.5657C14.0828 21.5657 12.1076 20.5065 11.5923 18.3881C11.2201 19.4759 10.6619 20.2775 9.91762 20.7928C9.17333 21.308 8.08552 21.5657 6.65419 21.5657C2.41744 21.5657 0.299072 19.8338 0.299072 16.3699C0.299072 14.3374 1.10062 12.9491 2.70371 12.2048C4.33543 11.4318 6.82594 11.0454 10.1753 11.0454ZM8.45766 16.327C8.45766 17.8156 8.52923 18.7746 8.67236 19.204C8.84412 19.6334 9.1447 19.8481 9.5741 19.8481C10.0321 19.8481 10.4472 19.4902 10.8194 18.7746C11.2201 18.0303 11.4205 17.014 11.4205 15.7258V11.7324H11.1199C9.34509 11.7324 8.45766 13.0349 8.45766 15.64V16.327Z" fill="white"/>
</svg>
