<svg width="25" height="34" viewBox="0 0 25 34" fill="none" xmlns="http://www.w3.org/2000/svg">
<path d="M9.15313 24.2477C9.15313 27.2535 9.31058 29.2574 9.62547 30.2593C9.94036 31.2326 10.5129 31.7192 11.3431 31.7192C12.2019 31.7192 12.9318 31.3471 13.533 30.6028C14.1628 29.8585 14.4777 28.7564 14.4777 27.2964V17.9355C14.4777 16.7046 14.2344 15.6597 13.7477 14.8009C13.2611 13.9421 12.5454 13.5127 11.6007 13.5127C10.656 13.5127 10.0119 14.1425 9.66841 15.4021C9.32489 16.6616 9.15313 18.8659 9.15313 22.0148V24.2477ZM15.0359 33.1363L14.5636 30.1305C13.5903 32.4206 11.615 33.5657 8.63785 33.5657C6.17596 33.5657 4.25798 32.6782 2.8839 30.9034C1.53845 29.1285 0.865723 26.4806 0.865723 22.9595C0.865723 15.8315 3.69976 12.2675 9.36783 12.2675C11.887 12.2675 13.5473 12.9688 14.3489 14.3715V1.70422H11.7295V0.931305H22.4645V32.3633H24.5686V33.1363H15.0359Z" fill="white"/>
</svg>
