<svg width="13" height="33" viewBox="0 0 13 33" fill="none" xmlns="http://www.w3.org/2000/svg">
<path d="M6.55913 8.73396C5.04192 8.73396 3.9541 8.3475 3.29569 7.57458C2.6659 6.80166 2.35102 5.84267 2.35102 4.6976C2.35102 3.55254 2.69453 2.60786 3.38157 1.86357C4.09724 1.11928 5.17074 0.747131 6.60207 0.747131C8.0334 0.747131 9.12121 1.09065 9.8655 1.77769C10.6098 2.4361 10.9819 3.39509 10.9819 4.65466C10.9819 5.88561 10.6241 6.87323 9.90845 7.61752C9.19278 8.36181 8.07634 8.73396 6.55913 8.73396ZM0.0751953 11.6968H10.5955V31.3633H13.0001V32.1362H0.246959V31.3633H2.60865V12.4697H0.0751953V11.6968Z" fill="white"/>
</svg>
